%FSLAX45Y45*%
G04 Gerber Fmt 4.5, Leading zero omitted, Abs format (unit mm)*
G04 Created by KiCad (PCBNEW (6.0.5)) date 2023-08-20 17:12:58*
%MOMM*%
%LPD*%
G01*
G04 APERTURE LIST*
%TA.AperFunction,Profile*%
%ADD10C,0.050000*%
%TD*%
%ADD11C,0.200000*%
%ADD12C,0.040000*%
%ADD13C,0.075000*%
%ADD14C,0.080000*%
%ADD15C,0.100000*%
%ADD16C,0.220000*%
%ADD17C,0.320000*%
G04 APERTURE END LIST*
D10*
X16131159Y-11906831D02*
X9398000Y-11906831D01*
X9398000Y-11906831D02*
X9398000Y-6096000D01*
X9398000Y-6096000D02*
X16131159Y-6096000D01*
X16131159Y-6096000D02*
X16131159Y-11906831D01*
D11*
D12*
X10076700Y-10252580D02*
X10116700Y-10292580D01*
X10116700Y-10252580D02*
X10076700Y-10292580D01*
X10489730Y-7182980D02*
X10529730Y-7222980D01*
X10529730Y-7182980D02*
X10489730Y-7222980D01*
X10505240Y-9268990D02*
X10545240Y-9308990D01*
X10545240Y-9268990D02*
X10505240Y-9308990D01*
X10573390Y-8933250D02*
X10613390Y-8973250D01*
X10613390Y-8933250D02*
X10573390Y-8973250D01*
X10646730Y-10307100D02*
X10686730Y-10347100D01*
X10686730Y-10307100D02*
X10646730Y-10347100D01*
X10672300Y-10509150D02*
X10712300Y-10549150D01*
X10712300Y-10509150D02*
X10672300Y-10549150D01*
X10741260Y-10767770D02*
X10781260Y-10807770D01*
X10781260Y-10767770D02*
X10741260Y-10807770D01*
X10905310Y-6960820D02*
X10945310Y-7000820D01*
X10945310Y-6960820D02*
X10905310Y-7000820D01*
X11133900Y-10925630D02*
X11173900Y-10965630D01*
X11173900Y-10925630D02*
X11133900Y-10965630D01*
X11168360Y-7321150D02*
X11208360Y-7361150D01*
X11208360Y-7321150D02*
X11168360Y-7361150D01*
X11289960Y-9595340D02*
X11329960Y-9635340D01*
X11329960Y-9595340D02*
X11289960Y-9635340D01*
X11434210Y-8698830D02*
X11474210Y-8738830D01*
X11474210Y-8698830D02*
X11434210Y-8738830D01*
X11480030Y-8305750D02*
X11520030Y-8345750D01*
X11520030Y-8305750D02*
X11480030Y-8345750D01*
X11493490Y-10102850D02*
X11533490Y-10142850D01*
X11533490Y-10102850D02*
X11493490Y-10142850D01*
X11540320Y-10294950D02*
X11580320Y-10334950D01*
X11580320Y-10294950D02*
X11540320Y-10334950D01*
X11568460Y-7670490D02*
X11608460Y-7710490D01*
X11608460Y-7670490D02*
X11568460Y-7710490D01*
X11973190Y-7530540D02*
X12013190Y-7570540D01*
X12013190Y-7530540D02*
X11973190Y-7570540D01*
X11979880Y-10168890D02*
X12019880Y-10208890D01*
X12019880Y-10168890D02*
X11979880Y-10208890D01*
X12065410Y-8755210D02*
X12105410Y-8795210D01*
X12105410Y-8755210D02*
X12065410Y-8795210D01*
X12077390Y-9291920D02*
X12117390Y-9331920D01*
X12117390Y-9291920D02*
X12077390Y-9331920D01*
X12209700Y-8676120D02*
X12249700Y-8716120D01*
X12249700Y-8676120D02*
X12209700Y-8716120D01*
X12264850Y-8885730D02*
X12304850Y-8925730D01*
X12304850Y-8885730D02*
X12264850Y-8925730D01*
X12417200Y-8357370D02*
X12457200Y-8397370D01*
X12457200Y-8357370D02*
X12417200Y-8397370D01*
X12503080Y-8477310D02*
X12543080Y-8517310D01*
X12543080Y-8477310D02*
X12503080Y-8517310D01*
X12683830Y-9749540D02*
X12723830Y-9789540D01*
X12723830Y-9749540D02*
X12683830Y-9789540D01*
X12793020Y-8883240D02*
X12833020Y-8923240D01*
X12833020Y-8883240D02*
X12793020Y-8923240D01*
X12898540Y-11253390D02*
X12938540Y-11293390D01*
X12938540Y-11253390D02*
X12898540Y-11293390D01*
X12952590Y-8550000D02*
X12992590Y-8590000D01*
X12992590Y-8550000D02*
X12952590Y-8590000D01*
X13013270Y-8945770D02*
X13053270Y-8985770D01*
X13053270Y-8945770D02*
X13013270Y-8985770D01*
X13013270Y-9250420D02*
X13053270Y-9290420D01*
X13053270Y-9250420D02*
X13013270Y-9290420D01*
X13419690Y-8036200D02*
X13459690Y-8076200D01*
X13459690Y-8036200D02*
X13419690Y-8076200D01*
X13429880Y-8541510D02*
X13469880Y-8581510D01*
X13469880Y-8541510D02*
X13429880Y-8581510D01*
X13430520Y-7036820D02*
X13470520Y-7076820D01*
X13470520Y-7036820D02*
X13430520Y-7076820D01*
X13464820Y-7526380D02*
X13504820Y-7566380D01*
X13504820Y-7526380D02*
X13464820Y-7566380D01*
X13470980Y-11449290D02*
X13510980Y-11489290D01*
X13510980Y-11449290D02*
X13470980Y-11489290D01*
X13487650Y-9508240D02*
X13527650Y-9548240D01*
X13527650Y-9508240D02*
X13487650Y-9548240D01*
X13581570Y-9049270D02*
X13621570Y-9089270D01*
X13621570Y-9049270D02*
X13581570Y-9089270D01*
X13585070Y-8387740D02*
X13625070Y-8427740D01*
X13625070Y-8387740D02*
X13585070Y-8427740D01*
X13648660Y-9744040D02*
X13688660Y-9784040D01*
X13688660Y-9744040D02*
X13648660Y-9784040D01*
X13895070Y-8356240D02*
X13935070Y-8396240D01*
X13935070Y-8356240D02*
X13895070Y-8396240D01*
X14056580Y-8482940D02*
X14096580Y-8522940D01*
X14096580Y-8482940D02*
X14056580Y-8522940D01*
X14204260Y-7448570D02*
X14244260Y-7488570D01*
X14244260Y-7448570D02*
X14204260Y-7488570D01*
X14271180Y-9194470D02*
X14311180Y-9234470D01*
X14311180Y-9194470D02*
X14271180Y-9234470D01*
X14397330Y-9653600D02*
X14437330Y-9693600D01*
X14437330Y-9653600D02*
X14397330Y-9693600D01*
X14409270Y-8644240D02*
X14449270Y-8684240D01*
X14449270Y-8644240D02*
X14409270Y-8684240D01*
X14481970Y-8726850D02*
X14521970Y-8766850D01*
X14521970Y-8726850D02*
X14481970Y-8766850D01*
X14544050Y-9383660D02*
X14584050Y-9423660D01*
X14584050Y-9383660D02*
X14544050Y-9423660D01*
X14686230Y-10001300D02*
X14726230Y-10041300D01*
X14726230Y-10001300D02*
X14686230Y-10041300D01*
X14700420Y-7426520D02*
X14740420Y-7466520D01*
X14740420Y-7426520D02*
X14700420Y-7466520D01*
X14884800Y-10417100D02*
X14924800Y-10457100D01*
X14924800Y-10417100D02*
X14884800Y-10457100D01*
X14887420Y-8443770D02*
X14927420Y-8483770D01*
X14927420Y-8443770D02*
X14887420Y-8483770D01*
X14930510Y-9370120D02*
X14970510Y-9410120D01*
X14970510Y-9370120D02*
X14930510Y-9410120D01*
X15002780Y-8727270D02*
X15042780Y-8767270D01*
X15042780Y-8727270D02*
X15002780Y-8767270D01*
X15146350Y-10598610D02*
X15186350Y-10638610D01*
X15186350Y-10598610D02*
X15146350Y-10638610D01*
X15237130Y-10690740D02*
X15277130Y-10730740D01*
X15277130Y-10690740D02*
X15237130Y-10730740D01*
X15773080Y-7282500D02*
X15813080Y-7322500D01*
X15813080Y-7282500D02*
X15773080Y-7322500D01*
X15917100Y-10536280D02*
X15957100Y-10576280D01*
X15957100Y-10536280D02*
X15917100Y-10576280D01*
X11080000Y-6450000D02*
G75*
G03*
X11080000Y-6450000I-20000J0D01*
G01*
X11105000Y-11625000D02*
G75*
G03*
X11105000Y-11625000I-20000J0D01*
G01*
X11128327Y-6333327D02*
G75*
G03*
X11128327Y-6333327I-20000J0D01*
G01*
X11128327Y-6566673D02*
G75*
G03*
X11128327Y-6566673I-20000J0D01*
G01*
X11153327Y-11508327D02*
G75*
G03*
X11153327Y-11508327I-20000J0D01*
G01*
X11153327Y-11741673D02*
G75*
G03*
X11153327Y-11741673I-20000J0D01*
G01*
X11245000Y-6285000D02*
G75*
G03*
X11245000Y-6285000I-20000J0D01*
G01*
X11245000Y-6615000D02*
G75*
G03*
X11245000Y-6615000I-20000J0D01*
G01*
X11270000Y-11460000D02*
G75*
G03*
X11270000Y-11460000I-20000J0D01*
G01*
X11270000Y-11790000D02*
G75*
G03*
X11270000Y-11790000I-20000J0D01*
G01*
X11361673Y-6333327D02*
G75*
G03*
X11361673Y-6333327I-20000J0D01*
G01*
X11361673Y-6566673D02*
G75*
G03*
X11361673Y-6566673I-20000J0D01*
G01*
X11386673Y-11508327D02*
G75*
G03*
X11386673Y-11508327I-20000J0D01*
G01*
X11386673Y-11741673D02*
G75*
G03*
X11386673Y-11741673I-20000J0D01*
G01*
X11410000Y-6450000D02*
G75*
G03*
X11410000Y-6450000I-20000J0D01*
G01*
X11435000Y-11625000D02*
G75*
G03*
X11435000Y-11625000I-20000J0D01*
G01*
X15666500Y-9334500D02*
G75*
G03*
X15666500Y-9334500I-20000J0D01*
G01*
X15714827Y-9217827D02*
G75*
G03*
X15714827Y-9217827I-20000J0D01*
G01*
X15714827Y-9451173D02*
G75*
G03*
X15714827Y-9451173I-20000J0D01*
G01*
X15831500Y-9169500D02*
G75*
G03*
X15831500Y-9169500I-20000J0D01*
G01*
X15831500Y-9499500D02*
G75*
G03*
X15831500Y-9499500I-20000J0D01*
G01*
X15948173Y-9217827D02*
G75*
G03*
X15948173Y-9217827I-20000J0D01*
G01*
X15948173Y-9451173D02*
G75*
G03*
X15948173Y-9451173I-20000J0D01*
G01*
X15996500Y-9334500D02*
G75*
G03*
X15996500Y-9334500I-20000J0D01*
G01*
D13*
X13665200Y-7682000D02*
X13665200Y-7757000D01*
X13627700Y-7719500D02*
X13702700Y-7719500D01*
X13792200Y-7682000D02*
X13792200Y-7757000D01*
X13754700Y-7719500D02*
X13829700Y-7719500D01*
X13919200Y-7682000D02*
X13919200Y-7757000D01*
X13881700Y-7719500D02*
X13956700Y-7719500D01*
X14249400Y-7682000D02*
X14249400Y-7757000D01*
X14211900Y-7719500D02*
X14286900Y-7719500D01*
X14376400Y-7682000D02*
X14376400Y-7757000D01*
X14338900Y-7719500D02*
X14413900Y-7719500D01*
X14503400Y-7682000D02*
X14503400Y-7757000D01*
X14465900Y-7719500D02*
X14540900Y-7719500D01*
X14833600Y-7682000D02*
X14833600Y-7757000D01*
X14796100Y-7719500D02*
X14871100Y-7719500D01*
X14960600Y-7682000D02*
X14960600Y-7757000D01*
X14923100Y-7719500D02*
X14998100Y-7719500D01*
X15087600Y-7682000D02*
X15087600Y-7757000D01*
X15050100Y-7719500D02*
X15125100Y-7719500D01*
D14*
X11779284Y-6612284D02*
X11779284Y-6555715D01*
X11722715Y-6555715D01*
X11722715Y-6612284D01*
X11779284Y-6612284D01*
X11779284Y-6866284D02*
X11779284Y-6809715D01*
X11722715Y-6809715D01*
X11722715Y-6866284D01*
X11779284Y-6866284D01*
X11779284Y-7120284D02*
X11779284Y-7063715D01*
X11722715Y-7063715D01*
X11722715Y-7120284D01*
X11779284Y-7120284D01*
X11779284Y-7374284D02*
X11779284Y-7317715D01*
X11722715Y-7317715D01*
X11722715Y-7374284D01*
X11779284Y-7374284D01*
X11779284Y-7628284D02*
X11779284Y-7571715D01*
X11722715Y-7571715D01*
X11722715Y-7628284D01*
X11779284Y-7628284D01*
X11779284Y-7882284D02*
X11779284Y-7825715D01*
X11722715Y-7825715D01*
X11722715Y-7882284D01*
X11779284Y-7882284D01*
X11779284Y-8136284D02*
X11779284Y-8079715D01*
X11722715Y-8079715D01*
X11722715Y-8136284D01*
X11779284Y-8136284D01*
X11779284Y-8390285D02*
X11779284Y-8333715D01*
X11722715Y-8333715D01*
X11722715Y-8390285D01*
X11779284Y-8390285D01*
X11779284Y-8644285D02*
X11779284Y-8587716D01*
X11722715Y-8587716D01*
X11722715Y-8644285D01*
X11779284Y-8644285D01*
X11779284Y-8898285D02*
X11779284Y-8841716D01*
X11722715Y-8841716D01*
X11722715Y-8898285D01*
X11779284Y-8898285D01*
X11779284Y-9152285D02*
X11779284Y-9095716D01*
X11722715Y-9095716D01*
X11722715Y-9152285D01*
X11779284Y-9152285D01*
X11779284Y-9406285D02*
X11779284Y-9349716D01*
X11722715Y-9349716D01*
X11722715Y-9406285D01*
X11779284Y-9406285D01*
X11779284Y-9660285D02*
X11779284Y-9603716D01*
X11722715Y-9603716D01*
X11722715Y-9660285D01*
X11779284Y-9660285D01*
X11779284Y-9914285D02*
X11779284Y-9857716D01*
X11722715Y-9857716D01*
X11722715Y-9914285D01*
X11779284Y-9914285D01*
X11779284Y-10168285D02*
X11779284Y-10111716D01*
X11722715Y-10111716D01*
X11722715Y-10168285D01*
X11779284Y-10168285D01*
X11779284Y-10422285D02*
X11779284Y-10365716D01*
X11722715Y-10365716D01*
X11722715Y-10422285D01*
X11779284Y-10422285D01*
X11779284Y-10676285D02*
X11779284Y-10619716D01*
X11722715Y-10619716D01*
X11722715Y-10676285D01*
X11779284Y-10676285D01*
X11779284Y-10930285D02*
X11779284Y-10873716D01*
X11722715Y-10873716D01*
X11722715Y-10930285D01*
X11779284Y-10930285D01*
X11779284Y-11184285D02*
X11779284Y-11127716D01*
X11722715Y-11127716D01*
X11722715Y-11184285D01*
X11779284Y-11184285D01*
X11779284Y-11438284D02*
X11779284Y-11381715D01*
X11722715Y-11381715D01*
X11722715Y-11438284D01*
X11779284Y-11438284D01*
X12795784Y-6314784D02*
X12795784Y-6258215D01*
X12739215Y-6258215D01*
X12739215Y-6314784D01*
X12795784Y-6314784D01*
X13295784Y-6314784D02*
X13295784Y-6258215D01*
X13239215Y-6258215D01*
X13239215Y-6314784D01*
X13295784Y-6314784D01*
X13303284Y-6612284D02*
X13303284Y-6555715D01*
X13246715Y-6555715D01*
X13246715Y-6612284D01*
X13303284Y-6612284D01*
X13303284Y-6866284D02*
X13303284Y-6809715D01*
X13246715Y-6809715D01*
X13246715Y-6866284D01*
X13303284Y-6866284D01*
X13303284Y-7120284D02*
X13303284Y-7063715D01*
X13246715Y-7063715D01*
X13246715Y-7120284D01*
X13303284Y-7120284D01*
X13303284Y-7374284D02*
X13303284Y-7317715D01*
X13246715Y-7317715D01*
X13246715Y-7374284D01*
X13303284Y-7374284D01*
X13303284Y-7628284D02*
X13303284Y-7571715D01*
X13246715Y-7571715D01*
X13246715Y-7628284D01*
X13303284Y-7628284D01*
X13303284Y-7882284D02*
X13303284Y-7825715D01*
X13246715Y-7825715D01*
X13246715Y-7882284D01*
X13303284Y-7882284D01*
X13303284Y-8136284D02*
X13303284Y-8079715D01*
X13246715Y-8079715D01*
X13246715Y-8136284D01*
X13303284Y-8136284D01*
X13303284Y-8390285D02*
X13303284Y-8333715D01*
X13246715Y-8333715D01*
X13246715Y-8390285D01*
X13303284Y-8390285D01*
X13303284Y-8644285D02*
X13303284Y-8587716D01*
X13246715Y-8587716D01*
X13246715Y-8644285D01*
X13303284Y-8644285D01*
X13303284Y-8898285D02*
X13303284Y-8841716D01*
X13246715Y-8841716D01*
X13246715Y-8898285D01*
X13303284Y-8898285D01*
X13303284Y-9152285D02*
X13303284Y-9095716D01*
X13246715Y-9095716D01*
X13246715Y-9152285D01*
X13303284Y-9152285D01*
X13303284Y-9406285D02*
X13303284Y-9349716D01*
X13246715Y-9349716D01*
X13246715Y-9406285D01*
X13303284Y-9406285D01*
X13303284Y-9660285D02*
X13303284Y-9603716D01*
X13246715Y-9603716D01*
X13246715Y-9660285D01*
X13303284Y-9660285D01*
X13303284Y-9914285D02*
X13303284Y-9857716D01*
X13246715Y-9857716D01*
X13246715Y-9914285D01*
X13303284Y-9914285D01*
X13303284Y-10168285D02*
X13303284Y-10111716D01*
X13246715Y-10111716D01*
X13246715Y-10168285D01*
X13303284Y-10168285D01*
X13303284Y-10422285D02*
X13303284Y-10365716D01*
X13246715Y-10365716D01*
X13246715Y-10422285D01*
X13303284Y-10422285D01*
X13303284Y-10676285D02*
X13303284Y-10619716D01*
X13246715Y-10619716D01*
X13246715Y-10676285D01*
X13303284Y-10676285D01*
X13303284Y-10930285D02*
X13303284Y-10873716D01*
X13246715Y-10873716D01*
X13246715Y-10930285D01*
X13303284Y-10930285D01*
X13303284Y-11184285D02*
X13303284Y-11127716D01*
X13246715Y-11127716D01*
X13246715Y-11184285D01*
X13303284Y-11184285D01*
X13303284Y-11438284D02*
X13303284Y-11381715D01*
X13246715Y-11381715D01*
X13246715Y-11438284D01*
X13303284Y-11438284D01*
X13821484Y-8156284D02*
X13821484Y-8099715D01*
X13764915Y-8099715D01*
X13764915Y-8156284D01*
X13821484Y-8156284D01*
X13821484Y-8918285D02*
X13821484Y-8861716D01*
X13764915Y-8861716D01*
X13764915Y-8918285D01*
X13821484Y-8918285D01*
X13845884Y-6479884D02*
X13845884Y-6423315D01*
X13789315Y-6423315D01*
X13789315Y-6479884D01*
X13845884Y-6479884D01*
X13845884Y-7241884D02*
X13845884Y-7185315D01*
X13789315Y-7185315D01*
X13789315Y-7241884D01*
X13845884Y-7241884D01*
X14075484Y-8156284D02*
X14075484Y-8099715D01*
X14018915Y-8099715D01*
X14018915Y-8156284D01*
X14075484Y-8156284D01*
X14075484Y-8918285D02*
X14075484Y-8861716D01*
X14018915Y-8861716D01*
X14018915Y-8918285D01*
X14075484Y-8918285D01*
X14329484Y-8156284D02*
X14329484Y-8099715D01*
X14272915Y-8099715D01*
X14272915Y-8156284D01*
X14329484Y-8156284D01*
X14329484Y-8918285D02*
X14329484Y-8861716D01*
X14272915Y-8861716D01*
X14272915Y-8918285D01*
X14329484Y-8918285D01*
X14404684Y-6479884D02*
X14404684Y-6423315D01*
X14348115Y-6423315D01*
X14348115Y-6479884D01*
X14404684Y-6479884D01*
X14404684Y-7241884D02*
X14404684Y-7185315D01*
X14348115Y-7185315D01*
X14348115Y-7241884D01*
X14404684Y-7241884D01*
X14583484Y-8156284D02*
X14583484Y-8099715D01*
X14526915Y-8099715D01*
X14526915Y-8156284D01*
X14583484Y-8156284D01*
X14583484Y-8918285D02*
X14583484Y-8861716D01*
X14526915Y-8861716D01*
X14526915Y-8918285D01*
X14583484Y-8918285D01*
X14837484Y-8156284D02*
X14837484Y-8099715D01*
X14780915Y-8099715D01*
X14780915Y-8156284D01*
X14837484Y-8156284D01*
X14837484Y-8918285D02*
X14837484Y-8861716D01*
X14780915Y-8861716D01*
X14780915Y-8918285D01*
X14837484Y-8918285D01*
X14988884Y-6479884D02*
X14988884Y-6423315D01*
X14932315Y-6423315D01*
X14932315Y-6479884D01*
X14988884Y-6479884D01*
X14988884Y-7241884D02*
X14988884Y-7185315D01*
X14932315Y-7185315D01*
X14932315Y-7241884D01*
X14988884Y-7241884D01*
X15091484Y-8156284D02*
X15091484Y-8099715D01*
X15034915Y-8099715D01*
X15034915Y-8156284D01*
X15091484Y-8156284D01*
X15091484Y-8918285D02*
X15091484Y-8861716D01*
X15034915Y-8861716D01*
X15034915Y-8918285D01*
X15091484Y-8918285D01*
X15345484Y-8156284D02*
X15345484Y-8099715D01*
X15288915Y-8099715D01*
X15288915Y-8156284D01*
X15345484Y-8156284D01*
X15345484Y-8918285D02*
X15345484Y-8861716D01*
X15288915Y-8861716D01*
X15288915Y-8918285D01*
X15345484Y-8918285D01*
X15599484Y-8156284D02*
X15599484Y-8099715D01*
X15542915Y-8099715D01*
X15542915Y-8156284D01*
X15599484Y-8156284D01*
X15599484Y-8918285D02*
X15599484Y-8861716D01*
X15542915Y-8861716D01*
X15542915Y-8918285D01*
X15599484Y-8918285D01*
X15903284Y-8414285D02*
X15903284Y-8357715D01*
X15846715Y-8357715D01*
X15846715Y-8414285D01*
X15903284Y-8414285D01*
X15903284Y-8914285D02*
X15903284Y-8857716D01*
X15846715Y-8857716D01*
X15846715Y-8914285D01*
X15903284Y-8914285D01*
D15*
X9876000Y-7554500D02*
X9926000Y-7504500D01*
X9876000Y-7454500D01*
X9826000Y-7504500D01*
X9876000Y-7554500D01*
X9876000Y-7831500D02*
X9926000Y-7781500D01*
X9876000Y-7731500D01*
X9826000Y-7781500D01*
X9876000Y-7831500D01*
X9876000Y-8108500D02*
X9926000Y-8058500D01*
X9876000Y-8008500D01*
X9826000Y-8058500D01*
X9876000Y-8108500D01*
X9876000Y-8385500D02*
X9926000Y-8335500D01*
X9876000Y-8285500D01*
X9826000Y-8335500D01*
X9876000Y-8385500D01*
X9876000Y-8662500D02*
X9926000Y-8612500D01*
X9876000Y-8562500D01*
X9826000Y-8612500D01*
X9876000Y-8662500D01*
X9876000Y-8939500D02*
X9926000Y-8889500D01*
X9876000Y-8839500D01*
X9826000Y-8889500D01*
X9876000Y-8939500D01*
X9876000Y-9216500D02*
X9926000Y-9166500D01*
X9876000Y-9116500D01*
X9826000Y-9166500D01*
X9876000Y-9216500D01*
X9876000Y-9493500D02*
X9926000Y-9443500D01*
X9876000Y-9393500D01*
X9826000Y-9443500D01*
X9876000Y-9493500D01*
X9876000Y-9770500D02*
X9926000Y-9720500D01*
X9876000Y-9670500D01*
X9826000Y-9720500D01*
X9876000Y-9770500D01*
X9876000Y-10047500D02*
X9926000Y-9997500D01*
X9876000Y-9947500D01*
X9826000Y-9997500D01*
X9876000Y-10047500D01*
X9876000Y-10324500D02*
X9926000Y-10274500D01*
X9876000Y-10224500D01*
X9826000Y-10274500D01*
X9876000Y-10324500D01*
X9876000Y-10601500D02*
X9926000Y-10551500D01*
X9876000Y-10501500D01*
X9826000Y-10551500D01*
X9876000Y-10601500D01*
X10160000Y-7416000D02*
X10210000Y-7366000D01*
X10160000Y-7316000D01*
X10110000Y-7366000D01*
X10160000Y-7416000D01*
X10160000Y-7693000D02*
X10210000Y-7643000D01*
X10160000Y-7593000D01*
X10110000Y-7643000D01*
X10160000Y-7693000D01*
X10160000Y-7970000D02*
X10210000Y-7920000D01*
X10160000Y-7870000D01*
X10110000Y-7920000D01*
X10160000Y-7970000D01*
X10160000Y-8247000D02*
X10210000Y-8197000D01*
X10160000Y-8147000D01*
X10110000Y-8197000D01*
X10160000Y-8247000D01*
X10160000Y-8524000D02*
X10210000Y-8474000D01*
X10160000Y-8424000D01*
X10110000Y-8474000D01*
X10160000Y-8524000D01*
X10160000Y-8801000D02*
X10210000Y-8751000D01*
X10160000Y-8701000D01*
X10110000Y-8751000D01*
X10160000Y-8801000D01*
X10160000Y-9078000D02*
X10210000Y-9028000D01*
X10160000Y-8978000D01*
X10110000Y-9028000D01*
X10160000Y-9078000D01*
X10160000Y-9355000D02*
X10210000Y-9305000D01*
X10160000Y-9255000D01*
X10110000Y-9305000D01*
X10160000Y-9355000D01*
X10160000Y-9632000D02*
X10210000Y-9582000D01*
X10160000Y-9532000D01*
X10110000Y-9582000D01*
X10160000Y-9632000D01*
X10160000Y-9909000D02*
X10210000Y-9859000D01*
X10160000Y-9809000D01*
X10110000Y-9859000D01*
X10160000Y-9909000D01*
X10160000Y-10186000D02*
X10210000Y-10136000D01*
X10160000Y-10086000D01*
X10110000Y-10136000D01*
X10160000Y-10186000D01*
X10160000Y-10463000D02*
X10210000Y-10413000D01*
X10160000Y-10363000D01*
X10110000Y-10413000D01*
X10160000Y-10463000D01*
X10160000Y-10740000D02*
X10210000Y-10690000D01*
X10160000Y-10640000D01*
X10110000Y-10690000D01*
X10160000Y-10740000D01*
X10789000Y-7416000D02*
X10839000Y-7366000D01*
X10789000Y-7316000D01*
X10739000Y-7366000D01*
X10789000Y-7416000D01*
X10789000Y-7670000D02*
X10839000Y-7620000D01*
X10789000Y-7570000D01*
X10739000Y-7620000D01*
X10789000Y-7670000D01*
X10789000Y-7924000D02*
X10839000Y-7874000D01*
X10789000Y-7824000D01*
X10739000Y-7874000D01*
X10789000Y-7924000D01*
X10789000Y-8178000D02*
X10839000Y-8128000D01*
X10789000Y-8078000D01*
X10739000Y-8128000D01*
X10789000Y-8178000D01*
X10789000Y-8432000D02*
X10839000Y-8382000D01*
X10789000Y-8332000D01*
X10739000Y-8382000D01*
X10789000Y-8432000D01*
X10789000Y-8686000D02*
X10839000Y-8636000D01*
X10789000Y-8586000D01*
X10739000Y-8636000D01*
X10789000Y-8686000D01*
X10789000Y-8940000D02*
X10839000Y-8890000D01*
X10789000Y-8840000D01*
X10739000Y-8890000D01*
X10789000Y-8940000D01*
X10789000Y-9194000D02*
X10839000Y-9144000D01*
X10789000Y-9094000D01*
X10739000Y-9144000D01*
X10789000Y-9194000D01*
X10789000Y-9448000D02*
X10839000Y-9398000D01*
X10789000Y-9348000D01*
X10739000Y-9398000D01*
X10789000Y-9448000D01*
X10789000Y-9702000D02*
X10839000Y-9652000D01*
X10789000Y-9602000D01*
X10739000Y-9652000D01*
X10789000Y-9702000D01*
X10789000Y-9956000D02*
X10839000Y-9906000D01*
X10789000Y-9856000D01*
X10739000Y-9906000D01*
X10789000Y-9956000D01*
X10789000Y-10210000D02*
X10839000Y-10160000D01*
X10789000Y-10110000D01*
X10739000Y-10160000D01*
X10789000Y-10210000D01*
X10789000Y-10464000D02*
X10839000Y-10414000D01*
X10789000Y-10364000D01*
X10739000Y-10414000D01*
X10789000Y-10464000D01*
X11043000Y-7416000D02*
X11093000Y-7366000D01*
X11043000Y-7316000D01*
X10993000Y-7366000D01*
X11043000Y-7416000D01*
X11043000Y-7670000D02*
X11093000Y-7620000D01*
X11043000Y-7570000D01*
X10993000Y-7620000D01*
X11043000Y-7670000D01*
X11043000Y-7924000D02*
X11093000Y-7874000D01*
X11043000Y-7824000D01*
X10993000Y-7874000D01*
X11043000Y-7924000D01*
X11043000Y-8178000D02*
X11093000Y-8128000D01*
X11043000Y-8078000D01*
X10993000Y-8128000D01*
X11043000Y-8178000D01*
X11043000Y-8432000D02*
X11093000Y-8382000D01*
X11043000Y-8332000D01*
X10993000Y-8382000D01*
X11043000Y-8432000D01*
X11043000Y-8686000D02*
X11093000Y-8636000D01*
X11043000Y-8586000D01*
X10993000Y-8636000D01*
X11043000Y-8686000D01*
X11043000Y-8940000D02*
X11093000Y-8890000D01*
X11043000Y-8840000D01*
X10993000Y-8890000D01*
X11043000Y-8940000D01*
X11043000Y-9194000D02*
X11093000Y-9144000D01*
X11043000Y-9094000D01*
X10993000Y-9144000D01*
X11043000Y-9194000D01*
X11043000Y-9448000D02*
X11093000Y-9398000D01*
X11043000Y-9348000D01*
X10993000Y-9398000D01*
X11043000Y-9448000D01*
X11043000Y-9702000D02*
X11093000Y-9652000D01*
X11043000Y-9602000D01*
X10993000Y-9652000D01*
X11043000Y-9702000D01*
X11043000Y-9956000D02*
X11093000Y-9906000D01*
X11043000Y-9856000D01*
X10993000Y-9906000D01*
X11043000Y-9956000D01*
X11043000Y-10210000D02*
X11093000Y-10160000D01*
X11043000Y-10110000D01*
X10993000Y-10160000D01*
X11043000Y-10210000D01*
X11043000Y-10464000D02*
X11093000Y-10414000D01*
X11043000Y-10364000D01*
X10993000Y-10414000D01*
X11043000Y-10464000D01*
X11112000Y-11226000D02*
X11162000Y-11176000D01*
X11112000Y-11126000D01*
X11062000Y-11176000D01*
X11112000Y-11226000D01*
X11366000Y-11226000D02*
X11416000Y-11176000D01*
X11366000Y-11126000D01*
X11316000Y-11176000D01*
X11366000Y-11226000D01*
X13879750Y-10138800D02*
X13929750Y-10088800D01*
X13879750Y-10038800D01*
X13829750Y-10088800D01*
X13879750Y-10138800D01*
X13879750Y-10392800D02*
X13929750Y-10342800D01*
X13879750Y-10292800D01*
X13829750Y-10342800D01*
X13879750Y-10392800D01*
X13879750Y-10646800D02*
X13929750Y-10596800D01*
X13879750Y-10546800D01*
X13829750Y-10596800D01*
X13879750Y-10646800D01*
X13879750Y-10900800D02*
X13929750Y-10850800D01*
X13879750Y-10800800D01*
X13829750Y-10850800D01*
X13879750Y-10900800D01*
X13879750Y-11154800D02*
X13929750Y-11104800D01*
X13879750Y-11054800D01*
X13829750Y-11104800D01*
X13879750Y-11154800D01*
X13879750Y-11408800D02*
X13929750Y-11358800D01*
X13879750Y-11308800D01*
X13829750Y-11358800D01*
X13879750Y-11408800D01*
X13879750Y-11662800D02*
X13929750Y-11612800D01*
X13879750Y-11562800D01*
X13829750Y-11612800D01*
X13879750Y-11662800D01*
X15404750Y-10138800D02*
X15454750Y-10088800D01*
X15404750Y-10038800D01*
X15354750Y-10088800D01*
X15404750Y-10138800D01*
X15404750Y-10392800D02*
X15454750Y-10342800D01*
X15404750Y-10292800D01*
X15354750Y-10342800D01*
X15404750Y-10392800D01*
X15404750Y-10646800D02*
X15454750Y-10596800D01*
X15404750Y-10546800D01*
X15354750Y-10596800D01*
X15404750Y-10646800D01*
X15404750Y-10900800D02*
X15454750Y-10850800D01*
X15404750Y-10800800D01*
X15354750Y-10850800D01*
X15404750Y-10900800D01*
X15404750Y-11154800D02*
X15454750Y-11104800D01*
X15404750Y-11054800D01*
X15354750Y-11104800D01*
X15404750Y-11154800D01*
X15404750Y-11408800D02*
X15454750Y-11358800D01*
X15404750Y-11308800D01*
X15354750Y-11358800D01*
X15404750Y-11408800D01*
X15404750Y-11662800D02*
X15454750Y-11612800D01*
X15404750Y-11562800D01*
X15354750Y-11612800D01*
X15404750Y-11662800D01*
X15570200Y-6590500D02*
X15620200Y-6540500D01*
X15570200Y-6490500D01*
X15520200Y-6540500D01*
X15570200Y-6590500D01*
X15570200Y-6844500D02*
X15620200Y-6794500D01*
X15570200Y-6744500D01*
X15520200Y-6794500D01*
X15570200Y-6844500D01*
X15570200Y-7098500D02*
X15620200Y-7048500D01*
X15570200Y-6998500D01*
X15520200Y-7048500D01*
X15570200Y-7098500D01*
X15570200Y-7352500D02*
X15620200Y-7302500D01*
X15570200Y-7252500D01*
X15520200Y-7302500D01*
X15570200Y-7352500D01*
X15570200Y-7797000D02*
X15620200Y-7747000D01*
X15570200Y-7697000D01*
X15520200Y-7747000D01*
X15570200Y-7797000D01*
X15824200Y-7797000D02*
X15874200Y-7747000D01*
X15824200Y-7697000D01*
X15774200Y-7747000D01*
X15824200Y-7797000D01*
D16*
X11115000Y-6340000D02*
X11335000Y-6560000D01*
X11335000Y-6340000D02*
X11115000Y-6560000D01*
X11335000Y-6450000D02*
G75*
G03*
X11335000Y-6450000I-110000J0D01*
G01*
X11140000Y-11515000D02*
X11360000Y-11735000D01*
X11360000Y-11515000D02*
X11140000Y-11735000D01*
X11360000Y-11625000D02*
G75*
G03*
X11360000Y-11625000I-110000J0D01*
G01*
X15701500Y-9224500D02*
X15921500Y-9444500D01*
X15921500Y-9224500D02*
X15701500Y-9444500D01*
X15921500Y-9334500D02*
G75*
G03*
X15921500Y-9334500I-110000J0D01*
G01*
D17*
X9970000Y-6513000D02*
X10290000Y-6833000D01*
X10290000Y-6513000D02*
X9970000Y-6833000D01*
X10130000Y-6513000D02*
X10130000Y-6833000D01*
X9970000Y-6673000D02*
X10290000Y-6673000D01*
X9970000Y-11223000D02*
X10290000Y-11543000D01*
X10290000Y-11223000D02*
X9970000Y-11543000D01*
X10130000Y-11223000D02*
X10130000Y-11543000D01*
X9970000Y-11383000D02*
X10290000Y-11383000D01*
D11*
X9653119Y-12219807D02*
X9653119Y-12019807D01*
X9700738Y-12019807D01*
X9729310Y-12029331D01*
X9748357Y-12048379D01*
X9757881Y-12067426D01*
X9767405Y-12105521D01*
X9767405Y-12134093D01*
X9757881Y-12172188D01*
X9748357Y-12191236D01*
X9729310Y-12210283D01*
X9700738Y-12219807D01*
X9653119Y-12219807D01*
X9853119Y-12219807D02*
X9853119Y-12086474D01*
X9853119Y-12124569D02*
X9862643Y-12105521D01*
X9872167Y-12095998D01*
X9891214Y-12086474D01*
X9910262Y-12086474D01*
X9976929Y-12219807D02*
X9976929Y-12086474D01*
X9976929Y-12019807D02*
X9967405Y-12029331D01*
X9976929Y-12038855D01*
X9986452Y-12029331D01*
X9976929Y-12019807D01*
X9976929Y-12038855D01*
X10100738Y-12219807D02*
X10081690Y-12210283D01*
X10072167Y-12191236D01*
X10072167Y-12019807D01*
X10205500Y-12219807D02*
X10186452Y-12210283D01*
X10176929Y-12191236D01*
X10176929Y-12019807D01*
X10434071Y-12219807D02*
X10434071Y-12019807D01*
X10500738Y-12162664D01*
X10567405Y-12019807D01*
X10567405Y-12219807D01*
X10748357Y-12219807D02*
X10748357Y-12115045D01*
X10738833Y-12095998D01*
X10719786Y-12086474D01*
X10681690Y-12086474D01*
X10662643Y-12095998D01*
X10748357Y-12210283D02*
X10729310Y-12219807D01*
X10681690Y-12219807D01*
X10662643Y-12210283D01*
X10653119Y-12191236D01*
X10653119Y-12172188D01*
X10662643Y-12153140D01*
X10681690Y-12143617D01*
X10729310Y-12143617D01*
X10748357Y-12134093D01*
X10843595Y-12086474D02*
X10843595Y-12286474D01*
X10843595Y-12095998D02*
X10862643Y-12086474D01*
X10900738Y-12086474D01*
X10919786Y-12095998D01*
X10929310Y-12105521D01*
X10938833Y-12124569D01*
X10938833Y-12181712D01*
X10929310Y-12200759D01*
X10919786Y-12210283D01*
X10900738Y-12219807D01*
X10862643Y-12219807D01*
X10843595Y-12210283D01*
X11024548Y-12200759D02*
X11034071Y-12210283D01*
X11024548Y-12219807D01*
X11015024Y-12210283D01*
X11024548Y-12200759D01*
X11024548Y-12219807D01*
X11024548Y-12095998D02*
X11034071Y-12105521D01*
X11024548Y-12115045D01*
X11015024Y-12105521D01*
X11024548Y-12095998D01*
X11024548Y-12115045D01*
D12*
X9355500Y-12529331D02*
X9395500Y-12569331D01*
X9395500Y-12529331D02*
X9355500Y-12569331D01*
D11*
X9691214Y-12439807D02*
X9710262Y-12439807D01*
X9729310Y-12449331D01*
X9738833Y-12458855D01*
X9748357Y-12477902D01*
X9757881Y-12515998D01*
X9757881Y-12563617D01*
X9748357Y-12601712D01*
X9738833Y-12620759D01*
X9729310Y-12630283D01*
X9710262Y-12639807D01*
X9691214Y-12639807D01*
X9672167Y-12630283D01*
X9662643Y-12620759D01*
X9653119Y-12601712D01*
X9643595Y-12563617D01*
X9643595Y-12515998D01*
X9653119Y-12477902D01*
X9662643Y-12458855D01*
X9672167Y-12449331D01*
X9691214Y-12439807D01*
X9843595Y-12620759D02*
X9853119Y-12630283D01*
X9843595Y-12639807D01*
X9834071Y-12630283D01*
X9843595Y-12620759D01*
X9843595Y-12639807D01*
X10024548Y-12506474D02*
X10024548Y-12639807D01*
X9976929Y-12430283D02*
X9929310Y-12573140D01*
X10053119Y-12573140D01*
X10167405Y-12439807D02*
X10186452Y-12439807D01*
X10205500Y-12449331D01*
X10215024Y-12458855D01*
X10224548Y-12477902D01*
X10234071Y-12515998D01*
X10234071Y-12563617D01*
X10224548Y-12601712D01*
X10215024Y-12620759D01*
X10205500Y-12630283D01*
X10186452Y-12639807D01*
X10167405Y-12639807D01*
X10148357Y-12630283D01*
X10138833Y-12620759D01*
X10129310Y-12601712D01*
X10119786Y-12563617D01*
X10119786Y-12515998D01*
X10129310Y-12477902D01*
X10138833Y-12458855D01*
X10148357Y-12449331D01*
X10167405Y-12439807D01*
X10357881Y-12439807D02*
X10376929Y-12439807D01*
X10395976Y-12449331D01*
X10405500Y-12458855D01*
X10415024Y-12477902D01*
X10424548Y-12515998D01*
X10424548Y-12563617D01*
X10415024Y-12601712D01*
X10405500Y-12620759D01*
X10395976Y-12630283D01*
X10376929Y-12639807D01*
X10357881Y-12639807D01*
X10338833Y-12630283D01*
X10329310Y-12620759D01*
X10319786Y-12601712D01*
X10310262Y-12563617D01*
X10310262Y-12515998D01*
X10319786Y-12477902D01*
X10329310Y-12458855D01*
X10338833Y-12449331D01*
X10357881Y-12439807D01*
X10510262Y-12639807D02*
X10510262Y-12506474D01*
X10510262Y-12525521D02*
X10519786Y-12515998D01*
X10538833Y-12506474D01*
X10567405Y-12506474D01*
X10586452Y-12515998D01*
X10595976Y-12535045D01*
X10595976Y-12639807D01*
X10595976Y-12535045D02*
X10605500Y-12515998D01*
X10624548Y-12506474D01*
X10653119Y-12506474D01*
X10672167Y-12515998D01*
X10681690Y-12535045D01*
X10681690Y-12639807D01*
X10776929Y-12639807D02*
X10776929Y-12506474D01*
X10776929Y-12525521D02*
X10786452Y-12515998D01*
X10805500Y-12506474D01*
X10834071Y-12506474D01*
X10853119Y-12515998D01*
X10862643Y-12535045D01*
X10862643Y-12639807D01*
X10862643Y-12535045D02*
X10872167Y-12515998D01*
X10891214Y-12506474D01*
X10919786Y-12506474D01*
X10938833Y-12515998D01*
X10948357Y-12535045D01*
X10948357Y-12639807D01*
X11338833Y-12430283D02*
X11167405Y-12687426D01*
X11595976Y-12439807D02*
X11615024Y-12439807D01*
X11634071Y-12449331D01*
X11643595Y-12458855D01*
X11653119Y-12477902D01*
X11662643Y-12515998D01*
X11662643Y-12563617D01*
X11653119Y-12601712D01*
X11643595Y-12620759D01*
X11634071Y-12630283D01*
X11615024Y-12639807D01*
X11595976Y-12639807D01*
X11576928Y-12630283D01*
X11567405Y-12620759D01*
X11557881Y-12601712D01*
X11548357Y-12563617D01*
X11548357Y-12515998D01*
X11557881Y-12477902D01*
X11567405Y-12458855D01*
X11576928Y-12449331D01*
X11595976Y-12439807D01*
X11748357Y-12620759D02*
X11757881Y-12630283D01*
X11748357Y-12639807D01*
X11738833Y-12630283D01*
X11748357Y-12620759D01*
X11748357Y-12639807D01*
X11881690Y-12439807D02*
X11900738Y-12439807D01*
X11919786Y-12449331D01*
X11929309Y-12458855D01*
X11938833Y-12477902D01*
X11948357Y-12515998D01*
X11948357Y-12563617D01*
X11938833Y-12601712D01*
X11929309Y-12620759D01*
X11919786Y-12630283D01*
X11900738Y-12639807D01*
X11881690Y-12639807D01*
X11862643Y-12630283D01*
X11853119Y-12620759D01*
X11843595Y-12601712D01*
X11834071Y-12563617D01*
X11834071Y-12515998D01*
X11843595Y-12477902D01*
X11853119Y-12458855D01*
X11862643Y-12449331D01*
X11881690Y-12439807D01*
X12138833Y-12639807D02*
X12024548Y-12639807D01*
X12081690Y-12639807D02*
X12081690Y-12439807D01*
X12062643Y-12468379D01*
X12043595Y-12487426D01*
X12024548Y-12496950D01*
X12319786Y-12439807D02*
X12224548Y-12439807D01*
X12215024Y-12535045D01*
X12224548Y-12525521D01*
X12243595Y-12515998D01*
X12291214Y-12515998D01*
X12310262Y-12525521D01*
X12319786Y-12535045D01*
X12329309Y-12554093D01*
X12329309Y-12601712D01*
X12319786Y-12620759D01*
X12310262Y-12630283D01*
X12291214Y-12639807D01*
X12243595Y-12639807D01*
X12224548Y-12630283D01*
X12215024Y-12620759D01*
X12395976Y-12439807D02*
X12529309Y-12439807D01*
X12443595Y-12639807D01*
X12595976Y-12439807D02*
X12595976Y-12477902D01*
X12672167Y-12439807D02*
X12672167Y-12477902D01*
X12967405Y-12715998D02*
X12957881Y-12706474D01*
X12938833Y-12677902D01*
X12929309Y-12658855D01*
X12919786Y-12630283D01*
X12910262Y-12582664D01*
X12910262Y-12544569D01*
X12919786Y-12496950D01*
X12929309Y-12468379D01*
X12938833Y-12449331D01*
X12957881Y-12420759D01*
X12967405Y-12411236D01*
X13138833Y-12439807D02*
X13043595Y-12439807D01*
X13034071Y-12535045D01*
X13043595Y-12525521D01*
X13062643Y-12515998D01*
X13110262Y-12515998D01*
X13129309Y-12525521D01*
X13138833Y-12535045D01*
X13148357Y-12554093D01*
X13148357Y-12601712D01*
X13138833Y-12620759D01*
X13129309Y-12630283D01*
X13110262Y-12639807D01*
X13062643Y-12639807D01*
X13043595Y-12630283D01*
X13034071Y-12620759D01*
X13215024Y-12439807D02*
X13348357Y-12439807D01*
X13262643Y-12639807D01*
X13576928Y-12639807D02*
X13576928Y-12439807D01*
X13662643Y-12639807D02*
X13662643Y-12535045D01*
X13653119Y-12515998D01*
X13634071Y-12506474D01*
X13605500Y-12506474D01*
X13586452Y-12515998D01*
X13576928Y-12525521D01*
X13786452Y-12639807D02*
X13767405Y-12630283D01*
X13757881Y-12620759D01*
X13748357Y-12601712D01*
X13748357Y-12544569D01*
X13757881Y-12525521D01*
X13767405Y-12515998D01*
X13786452Y-12506474D01*
X13815024Y-12506474D01*
X13834071Y-12515998D01*
X13843595Y-12525521D01*
X13853119Y-12544569D01*
X13853119Y-12601712D01*
X13843595Y-12620759D01*
X13834071Y-12630283D01*
X13815024Y-12639807D01*
X13786452Y-12639807D01*
X13967405Y-12639807D02*
X13948357Y-12630283D01*
X13938833Y-12611236D01*
X13938833Y-12439807D01*
X14119786Y-12630283D02*
X14100738Y-12639807D01*
X14062643Y-12639807D01*
X14043595Y-12630283D01*
X14034071Y-12611236D01*
X14034071Y-12535045D01*
X14043595Y-12515998D01*
X14062643Y-12506474D01*
X14100738Y-12506474D01*
X14119786Y-12515998D01*
X14129309Y-12535045D01*
X14129309Y-12554093D01*
X14034071Y-12573140D01*
X14205500Y-12630283D02*
X14224548Y-12639807D01*
X14262643Y-12639807D01*
X14281690Y-12630283D01*
X14291214Y-12611236D01*
X14291214Y-12601712D01*
X14281690Y-12582664D01*
X14262643Y-12573140D01*
X14234071Y-12573140D01*
X14215024Y-12563617D01*
X14205500Y-12544569D01*
X14205500Y-12535045D01*
X14215024Y-12515998D01*
X14234071Y-12506474D01*
X14262643Y-12506474D01*
X14281690Y-12515998D01*
X14357881Y-12715998D02*
X14367405Y-12706474D01*
X14386452Y-12677902D01*
X14395976Y-12658855D01*
X14405500Y-12630283D01*
X14415024Y-12582664D01*
X14415024Y-12544569D01*
X14405500Y-12496950D01*
X14395976Y-12468379D01*
X14386452Y-12449331D01*
X14367405Y-12420759D01*
X14357881Y-12411236D01*
D12*
X9395500Y-12813331D02*
G75*
G03*
X9395500Y-12813331I-20000J0D01*
G01*
D11*
X9691214Y-12703807D02*
X9710262Y-12703807D01*
X9729310Y-12713331D01*
X9738833Y-12722855D01*
X9748357Y-12741902D01*
X9757881Y-12779998D01*
X9757881Y-12827617D01*
X9748357Y-12865712D01*
X9738833Y-12884759D01*
X9729310Y-12894283D01*
X9710262Y-12903807D01*
X9691214Y-12903807D01*
X9672167Y-12894283D01*
X9662643Y-12884759D01*
X9653119Y-12865712D01*
X9643595Y-12827617D01*
X9643595Y-12779998D01*
X9653119Y-12741902D01*
X9662643Y-12722855D01*
X9672167Y-12713331D01*
X9691214Y-12703807D01*
X9843595Y-12884759D02*
X9853119Y-12894283D01*
X9843595Y-12903807D01*
X9834071Y-12894283D01*
X9843595Y-12884759D01*
X9843595Y-12903807D01*
X10024548Y-12770474D02*
X10024548Y-12903807D01*
X9976929Y-12694283D02*
X9929310Y-12837140D01*
X10053119Y-12837140D01*
X10167405Y-12703807D02*
X10186452Y-12703807D01*
X10205500Y-12713331D01*
X10215024Y-12722855D01*
X10224548Y-12741902D01*
X10234071Y-12779998D01*
X10234071Y-12827617D01*
X10224548Y-12865712D01*
X10215024Y-12884759D01*
X10205500Y-12894283D01*
X10186452Y-12903807D01*
X10167405Y-12903807D01*
X10148357Y-12894283D01*
X10138833Y-12884759D01*
X10129310Y-12865712D01*
X10119786Y-12827617D01*
X10119786Y-12779998D01*
X10129310Y-12741902D01*
X10138833Y-12722855D01*
X10148357Y-12713331D01*
X10167405Y-12703807D01*
X10357881Y-12703807D02*
X10376929Y-12703807D01*
X10395976Y-12713331D01*
X10405500Y-12722855D01*
X10415024Y-12741902D01*
X10424548Y-12779998D01*
X10424548Y-12827617D01*
X10415024Y-12865712D01*
X10405500Y-12884759D01*
X10395976Y-12894283D01*
X10376929Y-12903807D01*
X10357881Y-12903807D01*
X10338833Y-12894283D01*
X10329310Y-12884759D01*
X10319786Y-12865712D01*
X10310262Y-12827617D01*
X10310262Y-12779998D01*
X10319786Y-12741902D01*
X10329310Y-12722855D01*
X10338833Y-12713331D01*
X10357881Y-12703807D01*
X10510262Y-12903807D02*
X10510262Y-12770474D01*
X10510262Y-12789521D02*
X10519786Y-12779998D01*
X10538833Y-12770474D01*
X10567405Y-12770474D01*
X10586452Y-12779998D01*
X10595976Y-12799045D01*
X10595976Y-12903807D01*
X10595976Y-12799045D02*
X10605500Y-12779998D01*
X10624548Y-12770474D01*
X10653119Y-12770474D01*
X10672167Y-12779998D01*
X10681690Y-12799045D01*
X10681690Y-12903807D01*
X10776929Y-12903807D02*
X10776929Y-12770474D01*
X10776929Y-12789521D02*
X10786452Y-12779998D01*
X10805500Y-12770474D01*
X10834071Y-12770474D01*
X10853119Y-12779998D01*
X10862643Y-12799045D01*
X10862643Y-12903807D01*
X10862643Y-12799045D02*
X10872167Y-12779998D01*
X10891214Y-12770474D01*
X10919786Y-12770474D01*
X10938833Y-12779998D01*
X10948357Y-12799045D01*
X10948357Y-12903807D01*
X11338833Y-12694283D02*
X11167405Y-12951426D01*
X11595976Y-12703807D02*
X11615024Y-12703807D01*
X11634071Y-12713331D01*
X11643595Y-12722855D01*
X11653119Y-12741902D01*
X11662643Y-12779998D01*
X11662643Y-12827617D01*
X11653119Y-12865712D01*
X11643595Y-12884759D01*
X11634071Y-12894283D01*
X11615024Y-12903807D01*
X11595976Y-12903807D01*
X11576928Y-12894283D01*
X11567405Y-12884759D01*
X11557881Y-12865712D01*
X11548357Y-12827617D01*
X11548357Y-12779998D01*
X11557881Y-12741902D01*
X11567405Y-12722855D01*
X11576928Y-12713331D01*
X11595976Y-12703807D01*
X11748357Y-12884759D02*
X11757881Y-12894283D01*
X11748357Y-12903807D01*
X11738833Y-12894283D01*
X11748357Y-12884759D01*
X11748357Y-12903807D01*
X11881690Y-12703807D02*
X11900738Y-12703807D01*
X11919786Y-12713331D01*
X11929309Y-12722855D01*
X11938833Y-12741902D01*
X11948357Y-12779998D01*
X11948357Y-12827617D01*
X11938833Y-12865712D01*
X11929309Y-12884759D01*
X11919786Y-12894283D01*
X11900738Y-12903807D01*
X11881690Y-12903807D01*
X11862643Y-12894283D01*
X11853119Y-12884759D01*
X11843595Y-12865712D01*
X11834071Y-12827617D01*
X11834071Y-12779998D01*
X11843595Y-12741902D01*
X11853119Y-12722855D01*
X11862643Y-12713331D01*
X11881690Y-12703807D01*
X12138833Y-12903807D02*
X12024548Y-12903807D01*
X12081690Y-12903807D02*
X12081690Y-12703807D01*
X12062643Y-12732379D01*
X12043595Y-12751426D01*
X12024548Y-12760950D01*
X12319786Y-12703807D02*
X12224548Y-12703807D01*
X12215024Y-12799045D01*
X12224548Y-12789521D01*
X12243595Y-12779998D01*
X12291214Y-12779998D01*
X12310262Y-12789521D01*
X12319786Y-12799045D01*
X12329309Y-12818093D01*
X12329309Y-12865712D01*
X12319786Y-12884759D01*
X12310262Y-12894283D01*
X12291214Y-12903807D01*
X12243595Y-12903807D01*
X12224548Y-12894283D01*
X12215024Y-12884759D01*
X12395976Y-12703807D02*
X12529309Y-12703807D01*
X12443595Y-12903807D01*
X12595976Y-12703807D02*
X12595976Y-12741902D01*
X12672167Y-12703807D02*
X12672167Y-12741902D01*
X12967405Y-12979998D02*
X12957881Y-12970474D01*
X12938833Y-12941902D01*
X12929309Y-12922855D01*
X12919786Y-12894283D01*
X12910262Y-12846664D01*
X12910262Y-12808569D01*
X12919786Y-12760950D01*
X12929309Y-12732379D01*
X12938833Y-12713331D01*
X12957881Y-12684759D01*
X12967405Y-12675236D01*
X13034071Y-12722855D02*
X13043595Y-12713331D01*
X13062643Y-12703807D01*
X13110262Y-12703807D01*
X13129309Y-12713331D01*
X13138833Y-12722855D01*
X13148357Y-12741902D01*
X13148357Y-12760950D01*
X13138833Y-12789521D01*
X13024548Y-12903807D01*
X13148357Y-12903807D01*
X13319786Y-12770474D02*
X13319786Y-12903807D01*
X13272167Y-12694283D02*
X13224548Y-12837140D01*
X13348357Y-12837140D01*
X13576928Y-12903807D02*
X13576928Y-12703807D01*
X13662643Y-12903807D02*
X13662643Y-12799045D01*
X13653119Y-12779998D01*
X13634071Y-12770474D01*
X13605500Y-12770474D01*
X13586452Y-12779998D01*
X13576928Y-12789521D01*
X13786452Y-12903807D02*
X13767405Y-12894283D01*
X13757881Y-12884759D01*
X13748357Y-12865712D01*
X13748357Y-12808569D01*
X13757881Y-12789521D01*
X13767405Y-12779998D01*
X13786452Y-12770474D01*
X13815024Y-12770474D01*
X13834071Y-12779998D01*
X13843595Y-12789521D01*
X13853119Y-12808569D01*
X13853119Y-12865712D01*
X13843595Y-12884759D01*
X13834071Y-12894283D01*
X13815024Y-12903807D01*
X13786452Y-12903807D01*
X13967405Y-12903807D02*
X13948357Y-12894283D01*
X13938833Y-12875236D01*
X13938833Y-12703807D01*
X14119786Y-12894283D02*
X14100738Y-12903807D01*
X14062643Y-12903807D01*
X14043595Y-12894283D01*
X14034071Y-12875236D01*
X14034071Y-12799045D01*
X14043595Y-12779998D01*
X14062643Y-12770474D01*
X14100738Y-12770474D01*
X14119786Y-12779998D01*
X14129309Y-12799045D01*
X14129309Y-12818093D01*
X14034071Y-12837140D01*
X14205500Y-12894283D02*
X14224548Y-12903807D01*
X14262643Y-12903807D01*
X14281690Y-12894283D01*
X14291214Y-12875236D01*
X14291214Y-12865712D01*
X14281690Y-12846664D01*
X14262643Y-12837140D01*
X14234071Y-12837140D01*
X14215024Y-12827617D01*
X14205500Y-12808569D01*
X14205500Y-12799045D01*
X14215024Y-12779998D01*
X14234071Y-12770474D01*
X14262643Y-12770474D01*
X14281690Y-12779998D01*
X14357881Y-12979998D02*
X14367405Y-12970474D01*
X14386452Y-12941902D01*
X14395976Y-12922855D01*
X14405500Y-12894283D01*
X14415024Y-12846664D01*
X14415024Y-12808569D01*
X14405500Y-12760950D01*
X14395976Y-12732379D01*
X14386452Y-12713331D01*
X14367405Y-12684759D01*
X14357881Y-12675236D01*
D13*
X9358000Y-13039831D02*
X9358000Y-13114831D01*
X9320500Y-13077331D02*
X9395500Y-13077331D01*
D11*
X9691214Y-12967807D02*
X9710262Y-12967807D01*
X9729310Y-12977331D01*
X9738833Y-12986855D01*
X9748357Y-13005902D01*
X9757881Y-13043998D01*
X9757881Y-13091617D01*
X9748357Y-13129712D01*
X9738833Y-13148759D01*
X9729310Y-13158283D01*
X9710262Y-13167807D01*
X9691214Y-13167807D01*
X9672167Y-13158283D01*
X9662643Y-13148759D01*
X9653119Y-13129712D01*
X9643595Y-13091617D01*
X9643595Y-13043998D01*
X9653119Y-13005902D01*
X9662643Y-12986855D01*
X9672167Y-12977331D01*
X9691214Y-12967807D01*
X9843595Y-13148759D02*
X9853119Y-13158283D01*
X9843595Y-13167807D01*
X9834071Y-13158283D01*
X9843595Y-13148759D01*
X9843595Y-13167807D01*
X9919786Y-12967807D02*
X10053119Y-12967807D01*
X9967405Y-13167807D01*
X10224548Y-12967807D02*
X10129310Y-12967807D01*
X10119786Y-13063045D01*
X10129310Y-13053521D01*
X10148357Y-13043998D01*
X10195976Y-13043998D01*
X10215024Y-13053521D01*
X10224548Y-13063045D01*
X10234071Y-13082093D01*
X10234071Y-13129712D01*
X10224548Y-13148759D01*
X10215024Y-13158283D01*
X10195976Y-13167807D01*
X10148357Y-13167807D01*
X10129310Y-13158283D01*
X10119786Y-13148759D01*
X10357881Y-12967807D02*
X10376929Y-12967807D01*
X10395976Y-12977331D01*
X10405500Y-12986855D01*
X10415024Y-13005902D01*
X10424548Y-13043998D01*
X10424548Y-13091617D01*
X10415024Y-13129712D01*
X10405500Y-13148759D01*
X10395976Y-13158283D01*
X10376929Y-13167807D01*
X10357881Y-13167807D01*
X10338833Y-13158283D01*
X10329310Y-13148759D01*
X10319786Y-13129712D01*
X10310262Y-13091617D01*
X10310262Y-13043998D01*
X10319786Y-13005902D01*
X10329310Y-12986855D01*
X10338833Y-12977331D01*
X10357881Y-12967807D01*
X10510262Y-13167807D02*
X10510262Y-13034474D01*
X10510262Y-13053521D02*
X10519786Y-13043998D01*
X10538833Y-13034474D01*
X10567405Y-13034474D01*
X10586452Y-13043998D01*
X10595976Y-13063045D01*
X10595976Y-13167807D01*
X10595976Y-13063045D02*
X10605500Y-13043998D01*
X10624548Y-13034474D01*
X10653119Y-13034474D01*
X10672167Y-13043998D01*
X10681690Y-13063045D01*
X10681690Y-13167807D01*
X10776929Y-13167807D02*
X10776929Y-13034474D01*
X10776929Y-13053521D02*
X10786452Y-13043998D01*
X10805500Y-13034474D01*
X10834071Y-13034474D01*
X10853119Y-13043998D01*
X10862643Y-13063045D01*
X10862643Y-13167807D01*
X10862643Y-13063045D02*
X10872167Y-13043998D01*
X10891214Y-13034474D01*
X10919786Y-13034474D01*
X10938833Y-13043998D01*
X10948357Y-13063045D01*
X10948357Y-13167807D01*
X11338833Y-12958283D02*
X11167405Y-13215426D01*
X11595976Y-12967807D02*
X11615024Y-12967807D01*
X11634071Y-12977331D01*
X11643595Y-12986855D01*
X11653119Y-13005902D01*
X11662643Y-13043998D01*
X11662643Y-13091617D01*
X11653119Y-13129712D01*
X11643595Y-13148759D01*
X11634071Y-13158283D01*
X11615024Y-13167807D01*
X11595976Y-13167807D01*
X11576928Y-13158283D01*
X11567405Y-13148759D01*
X11557881Y-13129712D01*
X11548357Y-13091617D01*
X11548357Y-13043998D01*
X11557881Y-13005902D01*
X11567405Y-12986855D01*
X11576928Y-12977331D01*
X11595976Y-12967807D01*
X11748357Y-13148759D02*
X11757881Y-13158283D01*
X11748357Y-13167807D01*
X11738833Y-13158283D01*
X11748357Y-13148759D01*
X11748357Y-13167807D01*
X11881690Y-12967807D02*
X11900738Y-12967807D01*
X11919786Y-12977331D01*
X11929309Y-12986855D01*
X11938833Y-13005902D01*
X11948357Y-13043998D01*
X11948357Y-13091617D01*
X11938833Y-13129712D01*
X11929309Y-13148759D01*
X11919786Y-13158283D01*
X11900738Y-13167807D01*
X11881690Y-13167807D01*
X11862643Y-13158283D01*
X11853119Y-13148759D01*
X11843595Y-13129712D01*
X11834071Y-13091617D01*
X11834071Y-13043998D01*
X11843595Y-13005902D01*
X11853119Y-12986855D01*
X11862643Y-12977331D01*
X11881690Y-12967807D01*
X12024548Y-12986855D02*
X12034071Y-12977331D01*
X12053119Y-12967807D01*
X12100738Y-12967807D01*
X12119786Y-12977331D01*
X12129309Y-12986855D01*
X12138833Y-13005902D01*
X12138833Y-13024950D01*
X12129309Y-13053521D01*
X12015024Y-13167807D01*
X12138833Y-13167807D01*
X12234071Y-13167807D02*
X12272167Y-13167807D01*
X12291214Y-13158283D01*
X12300738Y-13148759D01*
X12319786Y-13120188D01*
X12329309Y-13082093D01*
X12329309Y-13005902D01*
X12319786Y-12986855D01*
X12310262Y-12977331D01*
X12291214Y-12967807D01*
X12253119Y-12967807D01*
X12234071Y-12977331D01*
X12224548Y-12986855D01*
X12215024Y-13005902D01*
X12215024Y-13053521D01*
X12224548Y-13072569D01*
X12234071Y-13082093D01*
X12253119Y-13091617D01*
X12291214Y-13091617D01*
X12310262Y-13082093D01*
X12319786Y-13072569D01*
X12329309Y-13053521D01*
X12510262Y-12967807D02*
X12415024Y-12967807D01*
X12405500Y-13063045D01*
X12415024Y-13053521D01*
X12434071Y-13043998D01*
X12481690Y-13043998D01*
X12500738Y-13053521D01*
X12510262Y-13063045D01*
X12519786Y-13082093D01*
X12519786Y-13129712D01*
X12510262Y-13148759D01*
X12500738Y-13158283D01*
X12481690Y-13167807D01*
X12434071Y-13167807D01*
X12415024Y-13158283D01*
X12405500Y-13148759D01*
X12595976Y-12967807D02*
X12595976Y-13005902D01*
X12672167Y-12967807D02*
X12672167Y-13005902D01*
X12967405Y-13243998D02*
X12957881Y-13234474D01*
X12938833Y-13205902D01*
X12929309Y-13186855D01*
X12919786Y-13158283D01*
X12910262Y-13110664D01*
X12910262Y-13072569D01*
X12919786Y-13024950D01*
X12929309Y-12996379D01*
X12938833Y-12977331D01*
X12957881Y-12948759D01*
X12967405Y-12939236D01*
X13053119Y-13167807D02*
X13091214Y-13167807D01*
X13110262Y-13158283D01*
X13119786Y-13148759D01*
X13138833Y-13120188D01*
X13148357Y-13082093D01*
X13148357Y-13005902D01*
X13138833Y-12986855D01*
X13129309Y-12977331D01*
X13110262Y-12967807D01*
X13072167Y-12967807D01*
X13053119Y-12977331D01*
X13043595Y-12986855D01*
X13034071Y-13005902D01*
X13034071Y-13053521D01*
X13043595Y-13072569D01*
X13053119Y-13082093D01*
X13072167Y-13091617D01*
X13110262Y-13091617D01*
X13129309Y-13082093D01*
X13138833Y-13072569D01*
X13148357Y-13053521D01*
X13386452Y-13167807D02*
X13386452Y-12967807D01*
X13472167Y-13167807D02*
X13472167Y-13063045D01*
X13462643Y-13043998D01*
X13443595Y-13034474D01*
X13415024Y-13034474D01*
X13395976Y-13043998D01*
X13386452Y-13053521D01*
X13595976Y-13167807D02*
X13576928Y-13158283D01*
X13567405Y-13148759D01*
X13557881Y-13129712D01*
X13557881Y-13072569D01*
X13567405Y-13053521D01*
X13576928Y-13043998D01*
X13595976Y-13034474D01*
X13624548Y-13034474D01*
X13643595Y-13043998D01*
X13653119Y-13053521D01*
X13662643Y-13072569D01*
X13662643Y-13129712D01*
X13653119Y-13148759D01*
X13643595Y-13158283D01*
X13624548Y-13167807D01*
X13595976Y-13167807D01*
X13776928Y-13167807D02*
X13757881Y-13158283D01*
X13748357Y-13139236D01*
X13748357Y-12967807D01*
X13929309Y-13158283D02*
X13910262Y-13167807D01*
X13872167Y-13167807D01*
X13853119Y-13158283D01*
X13843595Y-13139236D01*
X13843595Y-13063045D01*
X13853119Y-13043998D01*
X13872167Y-13034474D01*
X13910262Y-13034474D01*
X13929309Y-13043998D01*
X13938833Y-13063045D01*
X13938833Y-13082093D01*
X13843595Y-13101140D01*
X14015024Y-13158283D02*
X14034071Y-13167807D01*
X14072167Y-13167807D01*
X14091214Y-13158283D01*
X14100738Y-13139236D01*
X14100738Y-13129712D01*
X14091214Y-13110664D01*
X14072167Y-13101140D01*
X14043595Y-13101140D01*
X14024548Y-13091617D01*
X14015024Y-13072569D01*
X14015024Y-13063045D01*
X14024548Y-13043998D01*
X14043595Y-13034474D01*
X14072167Y-13034474D01*
X14091214Y-13043998D01*
X14167405Y-13243998D02*
X14176928Y-13234474D01*
X14195976Y-13205902D01*
X14205500Y-13186855D01*
X14215024Y-13158283D01*
X14224548Y-13110664D01*
X14224548Y-13072569D01*
X14215024Y-13024950D01*
X14205500Y-12996379D01*
X14195976Y-12977331D01*
X14176928Y-12948759D01*
X14167405Y-12939236D01*
D14*
X9383785Y-13369615D02*
X9383785Y-13313046D01*
X9327216Y-13313046D01*
X9327216Y-13369615D01*
X9383785Y-13369615D01*
D11*
X9691214Y-13231807D02*
X9710262Y-13231807D01*
X9729310Y-13241331D01*
X9738833Y-13250855D01*
X9748357Y-13269902D01*
X9757881Y-13307998D01*
X9757881Y-13355617D01*
X9748357Y-13393712D01*
X9738833Y-13412759D01*
X9729310Y-13422283D01*
X9710262Y-13431807D01*
X9691214Y-13431807D01*
X9672167Y-13422283D01*
X9662643Y-13412759D01*
X9653119Y-13393712D01*
X9643595Y-13355617D01*
X9643595Y-13307998D01*
X9653119Y-13269902D01*
X9662643Y-13250855D01*
X9672167Y-13241331D01*
X9691214Y-13231807D01*
X9843595Y-13412759D02*
X9853119Y-13422283D01*
X9843595Y-13431807D01*
X9834071Y-13422283D01*
X9843595Y-13412759D01*
X9843595Y-13431807D01*
X9967405Y-13317521D02*
X9948357Y-13307998D01*
X9938833Y-13298474D01*
X9929310Y-13279426D01*
X9929310Y-13269902D01*
X9938833Y-13250855D01*
X9948357Y-13241331D01*
X9967405Y-13231807D01*
X10005500Y-13231807D01*
X10024548Y-13241331D01*
X10034071Y-13250855D01*
X10043595Y-13269902D01*
X10043595Y-13279426D01*
X10034071Y-13298474D01*
X10024548Y-13307998D01*
X10005500Y-13317521D01*
X9967405Y-13317521D01*
X9948357Y-13327045D01*
X9938833Y-13336569D01*
X9929310Y-13355617D01*
X9929310Y-13393712D01*
X9938833Y-13412759D01*
X9948357Y-13422283D01*
X9967405Y-13431807D01*
X10005500Y-13431807D01*
X10024548Y-13422283D01*
X10034071Y-13412759D01*
X10043595Y-13393712D01*
X10043595Y-13355617D01*
X10034071Y-13336569D01*
X10024548Y-13327045D01*
X10005500Y-13317521D01*
X10167405Y-13231807D02*
X10186452Y-13231807D01*
X10205500Y-13241331D01*
X10215024Y-13250855D01*
X10224548Y-13269902D01*
X10234071Y-13307998D01*
X10234071Y-13355617D01*
X10224548Y-13393712D01*
X10215024Y-13412759D01*
X10205500Y-13422283D01*
X10186452Y-13431807D01*
X10167405Y-13431807D01*
X10148357Y-13422283D01*
X10138833Y-13412759D01*
X10129310Y-13393712D01*
X10119786Y-13355617D01*
X10119786Y-13307998D01*
X10129310Y-13269902D01*
X10138833Y-13250855D01*
X10148357Y-13241331D01*
X10167405Y-13231807D01*
X10357881Y-13231807D02*
X10376929Y-13231807D01*
X10395976Y-13241331D01*
X10405500Y-13250855D01*
X10415024Y-13269902D01*
X10424548Y-13307998D01*
X10424548Y-13355617D01*
X10415024Y-13393712D01*
X10405500Y-13412759D01*
X10395976Y-13422283D01*
X10376929Y-13431807D01*
X10357881Y-13431807D01*
X10338833Y-13422283D01*
X10329310Y-13412759D01*
X10319786Y-13393712D01*
X10310262Y-13355617D01*
X10310262Y-13307998D01*
X10319786Y-13269902D01*
X10329310Y-13250855D01*
X10338833Y-13241331D01*
X10357881Y-13231807D01*
X10510262Y-13431807D02*
X10510262Y-13298474D01*
X10510262Y-13317521D02*
X10519786Y-13307998D01*
X10538833Y-13298474D01*
X10567405Y-13298474D01*
X10586452Y-13307998D01*
X10595976Y-13327045D01*
X10595976Y-13431807D01*
X10595976Y-13327045D02*
X10605500Y-13307998D01*
X10624548Y-13298474D01*
X10653119Y-13298474D01*
X10672167Y-13307998D01*
X10681690Y-13327045D01*
X10681690Y-13431807D01*
X10776929Y-13431807D02*
X10776929Y-13298474D01*
X10776929Y-13317521D02*
X10786452Y-13307998D01*
X10805500Y-13298474D01*
X10834071Y-13298474D01*
X10853119Y-13307998D01*
X10862643Y-13327045D01*
X10862643Y-13431807D01*
X10862643Y-13327045D02*
X10872167Y-13307998D01*
X10891214Y-13298474D01*
X10919786Y-13298474D01*
X10938833Y-13307998D01*
X10948357Y-13327045D01*
X10948357Y-13431807D01*
X11338833Y-13222283D02*
X11167405Y-13479426D01*
X11595976Y-13231807D02*
X11615024Y-13231807D01*
X11634071Y-13241331D01*
X11643595Y-13250855D01*
X11653119Y-13269902D01*
X11662643Y-13307998D01*
X11662643Y-13355617D01*
X11653119Y-13393712D01*
X11643595Y-13412759D01*
X11634071Y-13422283D01*
X11615024Y-13431807D01*
X11595976Y-13431807D01*
X11576928Y-13422283D01*
X11567405Y-13412759D01*
X11557881Y-13393712D01*
X11548357Y-13355617D01*
X11548357Y-13307998D01*
X11557881Y-13269902D01*
X11567405Y-13250855D01*
X11576928Y-13241331D01*
X11595976Y-13231807D01*
X11748357Y-13412759D02*
X11757881Y-13422283D01*
X11748357Y-13431807D01*
X11738833Y-13422283D01*
X11748357Y-13412759D01*
X11748357Y-13431807D01*
X11881690Y-13231807D02*
X11900738Y-13231807D01*
X11919786Y-13241331D01*
X11929309Y-13250855D01*
X11938833Y-13269902D01*
X11948357Y-13307998D01*
X11948357Y-13355617D01*
X11938833Y-13393712D01*
X11929309Y-13412759D01*
X11919786Y-13422283D01*
X11900738Y-13431807D01*
X11881690Y-13431807D01*
X11862643Y-13422283D01*
X11853119Y-13412759D01*
X11843595Y-13393712D01*
X11834071Y-13355617D01*
X11834071Y-13307998D01*
X11843595Y-13269902D01*
X11853119Y-13250855D01*
X11862643Y-13241331D01*
X11881690Y-13231807D01*
X12015024Y-13231807D02*
X12138833Y-13231807D01*
X12072167Y-13307998D01*
X12100738Y-13307998D01*
X12119786Y-13317521D01*
X12129309Y-13327045D01*
X12138833Y-13346093D01*
X12138833Y-13393712D01*
X12129309Y-13412759D01*
X12119786Y-13422283D01*
X12100738Y-13431807D01*
X12043595Y-13431807D01*
X12024548Y-13422283D01*
X12015024Y-13412759D01*
X12329309Y-13431807D02*
X12215024Y-13431807D01*
X12272167Y-13431807D02*
X12272167Y-13231807D01*
X12253119Y-13260379D01*
X12234071Y-13279426D01*
X12215024Y-13288950D01*
X12510262Y-13231807D02*
X12415024Y-13231807D01*
X12405500Y-13327045D01*
X12415024Y-13317521D01*
X12434071Y-13307998D01*
X12481690Y-13307998D01*
X12500738Y-13317521D01*
X12510262Y-13327045D01*
X12519786Y-13346093D01*
X12519786Y-13393712D01*
X12510262Y-13412759D01*
X12500738Y-13422283D01*
X12481690Y-13431807D01*
X12434071Y-13431807D01*
X12415024Y-13422283D01*
X12405500Y-13412759D01*
X12595976Y-13231807D02*
X12595976Y-13269902D01*
X12672167Y-13231807D02*
X12672167Y-13269902D01*
X12967405Y-13507998D02*
X12957881Y-13498474D01*
X12938833Y-13469902D01*
X12929309Y-13450855D01*
X12919786Y-13422283D01*
X12910262Y-13374664D01*
X12910262Y-13336569D01*
X12919786Y-13288950D01*
X12929309Y-13260379D01*
X12938833Y-13241331D01*
X12957881Y-13212759D01*
X12967405Y-13203236D01*
X13129309Y-13231807D02*
X13091214Y-13231807D01*
X13072167Y-13241331D01*
X13062643Y-13250855D01*
X13043595Y-13279426D01*
X13034071Y-13317521D01*
X13034071Y-13393712D01*
X13043595Y-13412759D01*
X13053119Y-13422283D01*
X13072167Y-13431807D01*
X13110262Y-13431807D01*
X13129309Y-13422283D01*
X13138833Y-13412759D01*
X13148357Y-13393712D01*
X13148357Y-13346093D01*
X13138833Y-13327045D01*
X13129309Y-13317521D01*
X13110262Y-13307998D01*
X13072167Y-13307998D01*
X13053119Y-13317521D01*
X13043595Y-13327045D01*
X13034071Y-13346093D01*
X13319786Y-13231807D02*
X13281690Y-13231807D01*
X13262643Y-13241331D01*
X13253119Y-13250855D01*
X13234071Y-13279426D01*
X13224548Y-13317521D01*
X13224548Y-13393712D01*
X13234071Y-13412759D01*
X13243595Y-13422283D01*
X13262643Y-13431807D01*
X13300738Y-13431807D01*
X13319786Y-13422283D01*
X13329309Y-13412759D01*
X13338833Y-13393712D01*
X13338833Y-13346093D01*
X13329309Y-13327045D01*
X13319786Y-13317521D01*
X13300738Y-13307998D01*
X13262643Y-13307998D01*
X13243595Y-13317521D01*
X13234071Y-13327045D01*
X13224548Y-13346093D01*
X13576928Y-13431807D02*
X13576928Y-13231807D01*
X13662643Y-13431807D02*
X13662643Y-13327045D01*
X13653119Y-13307998D01*
X13634071Y-13298474D01*
X13605500Y-13298474D01*
X13586452Y-13307998D01*
X13576928Y-13317521D01*
X13786452Y-13431807D02*
X13767405Y-13422283D01*
X13757881Y-13412759D01*
X13748357Y-13393712D01*
X13748357Y-13336569D01*
X13757881Y-13317521D01*
X13767405Y-13307998D01*
X13786452Y-13298474D01*
X13815024Y-13298474D01*
X13834071Y-13307998D01*
X13843595Y-13317521D01*
X13853119Y-13336569D01*
X13853119Y-13393712D01*
X13843595Y-13412759D01*
X13834071Y-13422283D01*
X13815024Y-13431807D01*
X13786452Y-13431807D01*
X13967405Y-13431807D02*
X13948357Y-13422283D01*
X13938833Y-13403236D01*
X13938833Y-13231807D01*
X14119786Y-13422283D02*
X14100738Y-13431807D01*
X14062643Y-13431807D01*
X14043595Y-13422283D01*
X14034071Y-13403236D01*
X14034071Y-13327045D01*
X14043595Y-13307998D01*
X14062643Y-13298474D01*
X14100738Y-13298474D01*
X14119786Y-13307998D01*
X14129309Y-13327045D01*
X14129309Y-13346093D01*
X14034071Y-13365140D01*
X14205500Y-13422283D02*
X14224548Y-13431807D01*
X14262643Y-13431807D01*
X14281690Y-13422283D01*
X14291214Y-13403236D01*
X14291214Y-13393712D01*
X14281690Y-13374664D01*
X14262643Y-13365140D01*
X14234071Y-13365140D01*
X14215024Y-13355617D01*
X14205500Y-13336569D01*
X14205500Y-13327045D01*
X14215024Y-13307998D01*
X14234071Y-13298474D01*
X14262643Y-13298474D01*
X14281690Y-13307998D01*
X14357881Y-13507998D02*
X14367405Y-13498474D01*
X14386452Y-13469902D01*
X14395976Y-13450855D01*
X14405500Y-13422283D01*
X14415024Y-13374664D01*
X14415024Y-13336569D01*
X14405500Y-13288950D01*
X14395976Y-13260379D01*
X14386452Y-13241331D01*
X14367405Y-13212759D01*
X14357881Y-13203236D01*
D15*
X9345500Y-13655331D02*
X9395500Y-13605331D01*
X9345500Y-13555331D01*
X9295500Y-13605331D01*
X9345500Y-13655331D01*
D11*
X9757881Y-13695807D02*
X9643595Y-13695807D01*
X9700738Y-13695807D02*
X9700738Y-13495807D01*
X9681690Y-13524379D01*
X9662643Y-13543426D01*
X9643595Y-13552950D01*
X9843595Y-13676759D02*
X9853119Y-13686283D01*
X9843595Y-13695807D01*
X9834071Y-13686283D01*
X9843595Y-13676759D01*
X9843595Y-13695807D01*
X9976929Y-13495807D02*
X9995976Y-13495807D01*
X10015024Y-13505331D01*
X10024548Y-13514855D01*
X10034071Y-13533902D01*
X10043595Y-13571998D01*
X10043595Y-13619617D01*
X10034071Y-13657712D01*
X10024548Y-13676759D01*
X10015024Y-13686283D01*
X9995976Y-13695807D01*
X9976929Y-13695807D01*
X9957881Y-13686283D01*
X9948357Y-13676759D01*
X9938833Y-13657712D01*
X9929310Y-13619617D01*
X9929310Y-13571998D01*
X9938833Y-13533902D01*
X9948357Y-13514855D01*
X9957881Y-13505331D01*
X9976929Y-13495807D01*
X10167405Y-13495807D02*
X10186452Y-13495807D01*
X10205500Y-13505331D01*
X10215024Y-13514855D01*
X10224548Y-13533902D01*
X10234071Y-13571998D01*
X10234071Y-13619617D01*
X10224548Y-13657712D01*
X10215024Y-13676759D01*
X10205500Y-13686283D01*
X10186452Y-13695807D01*
X10167405Y-13695807D01*
X10148357Y-13686283D01*
X10138833Y-13676759D01*
X10129310Y-13657712D01*
X10119786Y-13619617D01*
X10119786Y-13571998D01*
X10129310Y-13533902D01*
X10138833Y-13514855D01*
X10148357Y-13505331D01*
X10167405Y-13495807D01*
X10357881Y-13495807D02*
X10376929Y-13495807D01*
X10395976Y-13505331D01*
X10405500Y-13514855D01*
X10415024Y-13533902D01*
X10424548Y-13571998D01*
X10424548Y-13619617D01*
X10415024Y-13657712D01*
X10405500Y-13676759D01*
X10395976Y-13686283D01*
X10376929Y-13695807D01*
X10357881Y-13695807D01*
X10338833Y-13686283D01*
X10329310Y-13676759D01*
X10319786Y-13657712D01*
X10310262Y-13619617D01*
X10310262Y-13571998D01*
X10319786Y-13533902D01*
X10329310Y-13514855D01*
X10338833Y-13505331D01*
X10357881Y-13495807D01*
X10510262Y-13695807D02*
X10510262Y-13562474D01*
X10510262Y-13581521D02*
X10519786Y-13571998D01*
X10538833Y-13562474D01*
X10567405Y-13562474D01*
X10586452Y-13571998D01*
X10595976Y-13591045D01*
X10595976Y-13695807D01*
X10595976Y-13591045D02*
X10605500Y-13571998D01*
X10624548Y-13562474D01*
X10653119Y-13562474D01*
X10672167Y-13571998D01*
X10681690Y-13591045D01*
X10681690Y-13695807D01*
X10776929Y-13695807D02*
X10776929Y-13562474D01*
X10776929Y-13581521D02*
X10786452Y-13571998D01*
X10805500Y-13562474D01*
X10834071Y-13562474D01*
X10853119Y-13571998D01*
X10862643Y-13591045D01*
X10862643Y-13695807D01*
X10862643Y-13591045D02*
X10872167Y-13571998D01*
X10891214Y-13562474D01*
X10919786Y-13562474D01*
X10938833Y-13571998D01*
X10948357Y-13591045D01*
X10948357Y-13695807D01*
X11338833Y-13486283D02*
X11167405Y-13743426D01*
X11595976Y-13495807D02*
X11615024Y-13495807D01*
X11634071Y-13505331D01*
X11643595Y-13514855D01*
X11653119Y-13533902D01*
X11662643Y-13571998D01*
X11662643Y-13619617D01*
X11653119Y-13657712D01*
X11643595Y-13676759D01*
X11634071Y-13686283D01*
X11615024Y-13695807D01*
X11595976Y-13695807D01*
X11576928Y-13686283D01*
X11567405Y-13676759D01*
X11557881Y-13657712D01*
X11548357Y-13619617D01*
X11548357Y-13571998D01*
X11557881Y-13533902D01*
X11567405Y-13514855D01*
X11576928Y-13505331D01*
X11595976Y-13495807D01*
X11748357Y-13676759D02*
X11757881Y-13686283D01*
X11748357Y-13695807D01*
X11738833Y-13686283D01*
X11748357Y-13676759D01*
X11748357Y-13695807D01*
X11881690Y-13495807D02*
X11900738Y-13495807D01*
X11919786Y-13505331D01*
X11929309Y-13514855D01*
X11938833Y-13533902D01*
X11948357Y-13571998D01*
X11948357Y-13619617D01*
X11938833Y-13657712D01*
X11929309Y-13676759D01*
X11919786Y-13686283D01*
X11900738Y-13695807D01*
X11881690Y-13695807D01*
X11862643Y-13686283D01*
X11853119Y-13676759D01*
X11843595Y-13657712D01*
X11834071Y-13619617D01*
X11834071Y-13571998D01*
X11843595Y-13533902D01*
X11853119Y-13514855D01*
X11862643Y-13505331D01*
X11881690Y-13495807D01*
X12015024Y-13495807D02*
X12138833Y-13495807D01*
X12072167Y-13571998D01*
X12100738Y-13571998D01*
X12119786Y-13581521D01*
X12129309Y-13591045D01*
X12138833Y-13610093D01*
X12138833Y-13657712D01*
X12129309Y-13676759D01*
X12119786Y-13686283D01*
X12100738Y-13695807D01*
X12043595Y-13695807D01*
X12024548Y-13686283D01*
X12015024Y-13676759D01*
X12234071Y-13695807D02*
X12272167Y-13695807D01*
X12291214Y-13686283D01*
X12300738Y-13676759D01*
X12319786Y-13648188D01*
X12329309Y-13610093D01*
X12329309Y-13533902D01*
X12319786Y-13514855D01*
X12310262Y-13505331D01*
X12291214Y-13495807D01*
X12253119Y-13495807D01*
X12234071Y-13505331D01*
X12224548Y-13514855D01*
X12215024Y-13533902D01*
X12215024Y-13581521D01*
X12224548Y-13600569D01*
X12234071Y-13610093D01*
X12253119Y-13619617D01*
X12291214Y-13619617D01*
X12310262Y-13610093D01*
X12319786Y-13600569D01*
X12329309Y-13581521D01*
X12500738Y-13562474D02*
X12500738Y-13695807D01*
X12453119Y-13486283D02*
X12405500Y-13629140D01*
X12529309Y-13629140D01*
X12595976Y-13495807D02*
X12595976Y-13533902D01*
X12672167Y-13495807D02*
X12672167Y-13533902D01*
X12967405Y-13771998D02*
X12957881Y-13762474D01*
X12938833Y-13733902D01*
X12929309Y-13714855D01*
X12919786Y-13686283D01*
X12910262Y-13638664D01*
X12910262Y-13600569D01*
X12919786Y-13552950D01*
X12929309Y-13524379D01*
X12938833Y-13505331D01*
X12957881Y-13476759D01*
X12967405Y-13467236D01*
X13024548Y-13495807D02*
X13157881Y-13495807D01*
X13072167Y-13695807D01*
X13215024Y-13495807D02*
X13338833Y-13495807D01*
X13272167Y-13571998D01*
X13300738Y-13571998D01*
X13319786Y-13581521D01*
X13329309Y-13591045D01*
X13338833Y-13610093D01*
X13338833Y-13657712D01*
X13329309Y-13676759D01*
X13319786Y-13686283D01*
X13300738Y-13695807D01*
X13243595Y-13695807D01*
X13224548Y-13686283D01*
X13215024Y-13676759D01*
X13576928Y-13695807D02*
X13576928Y-13495807D01*
X13662643Y-13695807D02*
X13662643Y-13591045D01*
X13653119Y-13571998D01*
X13634071Y-13562474D01*
X13605500Y-13562474D01*
X13586452Y-13571998D01*
X13576928Y-13581521D01*
X13786452Y-13695807D02*
X13767405Y-13686283D01*
X13757881Y-13676759D01*
X13748357Y-13657712D01*
X13748357Y-13600569D01*
X13757881Y-13581521D01*
X13767405Y-13571998D01*
X13786452Y-13562474D01*
X13815024Y-13562474D01*
X13834071Y-13571998D01*
X13843595Y-13581521D01*
X13853119Y-13600569D01*
X13853119Y-13657712D01*
X13843595Y-13676759D01*
X13834071Y-13686283D01*
X13815024Y-13695807D01*
X13786452Y-13695807D01*
X13967405Y-13695807D02*
X13948357Y-13686283D01*
X13938833Y-13667236D01*
X13938833Y-13495807D01*
X14119786Y-13686283D02*
X14100738Y-13695807D01*
X14062643Y-13695807D01*
X14043595Y-13686283D01*
X14034071Y-13667236D01*
X14034071Y-13591045D01*
X14043595Y-13571998D01*
X14062643Y-13562474D01*
X14100738Y-13562474D01*
X14119786Y-13571998D01*
X14129309Y-13591045D01*
X14129309Y-13610093D01*
X14034071Y-13629140D01*
X14205500Y-13686283D02*
X14224548Y-13695807D01*
X14262643Y-13695807D01*
X14281690Y-13686283D01*
X14291214Y-13667236D01*
X14291214Y-13657712D01*
X14281690Y-13638664D01*
X14262643Y-13629140D01*
X14234071Y-13629140D01*
X14215024Y-13619617D01*
X14205500Y-13600569D01*
X14205500Y-13591045D01*
X14215024Y-13571998D01*
X14234071Y-13562474D01*
X14262643Y-13562474D01*
X14281690Y-13571998D01*
X14357881Y-13771998D02*
X14367405Y-13762474D01*
X14386452Y-13733902D01*
X14395976Y-13714855D01*
X14405500Y-13686283D01*
X14415024Y-13638664D01*
X14415024Y-13600569D01*
X14405500Y-13552950D01*
X14395976Y-13524379D01*
X14386452Y-13505331D01*
X14367405Y-13476759D01*
X14357881Y-13467236D01*
X9195500Y-13769331D02*
X9395500Y-13969331D01*
X9395500Y-13769331D02*
X9195500Y-13969331D01*
X9395500Y-13869331D02*
G75*
G03*
X9395500Y-13869331I-100000J0D01*
G01*
X9643595Y-13778855D02*
X9653119Y-13769331D01*
X9672167Y-13759807D01*
X9719786Y-13759807D01*
X9738833Y-13769331D01*
X9748357Y-13778855D01*
X9757881Y-13797902D01*
X9757881Y-13816950D01*
X9748357Y-13845521D01*
X9634071Y-13959807D01*
X9757881Y-13959807D01*
X9843595Y-13940759D02*
X9853119Y-13950283D01*
X9843595Y-13959807D01*
X9834071Y-13950283D01*
X9843595Y-13940759D01*
X9843595Y-13959807D01*
X9929310Y-13778855D02*
X9938833Y-13769331D01*
X9957881Y-13759807D01*
X10005500Y-13759807D01*
X10024548Y-13769331D01*
X10034071Y-13778855D01*
X10043595Y-13797902D01*
X10043595Y-13816950D01*
X10034071Y-13845521D01*
X9919786Y-13959807D01*
X10043595Y-13959807D01*
X10167405Y-13759807D02*
X10186452Y-13759807D01*
X10205500Y-13769331D01*
X10215024Y-13778855D01*
X10224548Y-13797902D01*
X10234071Y-13835998D01*
X10234071Y-13883617D01*
X10224548Y-13921712D01*
X10215024Y-13940759D01*
X10205500Y-13950283D01*
X10186452Y-13959807D01*
X10167405Y-13959807D01*
X10148357Y-13950283D01*
X10138833Y-13940759D01*
X10129310Y-13921712D01*
X10119786Y-13883617D01*
X10119786Y-13835998D01*
X10129310Y-13797902D01*
X10138833Y-13778855D01*
X10148357Y-13769331D01*
X10167405Y-13759807D01*
X10357881Y-13759807D02*
X10376929Y-13759807D01*
X10395976Y-13769331D01*
X10405500Y-13778855D01*
X10415024Y-13797902D01*
X10424548Y-13835998D01*
X10424548Y-13883617D01*
X10415024Y-13921712D01*
X10405500Y-13940759D01*
X10395976Y-13950283D01*
X10376929Y-13959807D01*
X10357881Y-13959807D01*
X10338833Y-13950283D01*
X10329310Y-13940759D01*
X10319786Y-13921712D01*
X10310262Y-13883617D01*
X10310262Y-13835998D01*
X10319786Y-13797902D01*
X10329310Y-13778855D01*
X10338833Y-13769331D01*
X10357881Y-13759807D01*
X10510262Y-13959807D02*
X10510262Y-13826474D01*
X10510262Y-13845521D02*
X10519786Y-13835998D01*
X10538833Y-13826474D01*
X10567405Y-13826474D01*
X10586452Y-13835998D01*
X10595976Y-13855045D01*
X10595976Y-13959807D01*
X10595976Y-13855045D02*
X10605500Y-13835998D01*
X10624548Y-13826474D01*
X10653119Y-13826474D01*
X10672167Y-13835998D01*
X10681690Y-13855045D01*
X10681690Y-13959807D01*
X10776929Y-13959807D02*
X10776929Y-13826474D01*
X10776929Y-13845521D02*
X10786452Y-13835998D01*
X10805500Y-13826474D01*
X10834071Y-13826474D01*
X10853119Y-13835998D01*
X10862643Y-13855045D01*
X10862643Y-13959807D01*
X10862643Y-13855045D02*
X10872167Y-13835998D01*
X10891214Y-13826474D01*
X10919786Y-13826474D01*
X10938833Y-13835998D01*
X10948357Y-13855045D01*
X10948357Y-13959807D01*
X11338833Y-13750283D02*
X11167405Y-14007426D01*
X11595976Y-13759807D02*
X11615024Y-13759807D01*
X11634071Y-13769331D01*
X11643595Y-13778855D01*
X11653119Y-13797902D01*
X11662643Y-13835998D01*
X11662643Y-13883617D01*
X11653119Y-13921712D01*
X11643595Y-13940759D01*
X11634071Y-13950283D01*
X11615024Y-13959807D01*
X11595976Y-13959807D01*
X11576928Y-13950283D01*
X11567405Y-13940759D01*
X11557881Y-13921712D01*
X11548357Y-13883617D01*
X11548357Y-13835998D01*
X11557881Y-13797902D01*
X11567405Y-13778855D01*
X11576928Y-13769331D01*
X11595976Y-13759807D01*
X11748357Y-13940759D02*
X11757881Y-13950283D01*
X11748357Y-13959807D01*
X11738833Y-13950283D01*
X11748357Y-13940759D01*
X11748357Y-13959807D01*
X11881690Y-13759807D02*
X11900738Y-13759807D01*
X11919786Y-13769331D01*
X11929309Y-13778855D01*
X11938833Y-13797902D01*
X11948357Y-13835998D01*
X11948357Y-13883617D01*
X11938833Y-13921712D01*
X11929309Y-13940759D01*
X11919786Y-13950283D01*
X11900738Y-13959807D01*
X11881690Y-13959807D01*
X11862643Y-13950283D01*
X11853119Y-13940759D01*
X11843595Y-13921712D01*
X11834071Y-13883617D01*
X11834071Y-13835998D01*
X11843595Y-13797902D01*
X11853119Y-13778855D01*
X11862643Y-13769331D01*
X11881690Y-13759807D01*
X12062643Y-13845521D02*
X12043595Y-13835998D01*
X12034071Y-13826474D01*
X12024548Y-13807426D01*
X12024548Y-13797902D01*
X12034071Y-13778855D01*
X12043595Y-13769331D01*
X12062643Y-13759807D01*
X12100738Y-13759807D01*
X12119786Y-13769331D01*
X12129309Y-13778855D01*
X12138833Y-13797902D01*
X12138833Y-13807426D01*
X12129309Y-13826474D01*
X12119786Y-13835998D01*
X12100738Y-13845521D01*
X12062643Y-13845521D01*
X12043595Y-13855045D01*
X12034071Y-13864569D01*
X12024548Y-13883617D01*
X12024548Y-13921712D01*
X12034071Y-13940759D01*
X12043595Y-13950283D01*
X12062643Y-13959807D01*
X12100738Y-13959807D01*
X12119786Y-13950283D01*
X12129309Y-13940759D01*
X12138833Y-13921712D01*
X12138833Y-13883617D01*
X12129309Y-13864569D01*
X12119786Y-13855045D01*
X12100738Y-13845521D01*
X12310262Y-13759807D02*
X12272167Y-13759807D01*
X12253119Y-13769331D01*
X12243595Y-13778855D01*
X12224548Y-13807426D01*
X12215024Y-13845521D01*
X12215024Y-13921712D01*
X12224548Y-13940759D01*
X12234071Y-13950283D01*
X12253119Y-13959807D01*
X12291214Y-13959807D01*
X12310262Y-13950283D01*
X12319786Y-13940759D01*
X12329309Y-13921712D01*
X12329309Y-13874093D01*
X12319786Y-13855045D01*
X12310262Y-13845521D01*
X12291214Y-13835998D01*
X12253119Y-13835998D01*
X12234071Y-13845521D01*
X12224548Y-13855045D01*
X12215024Y-13874093D01*
X12500738Y-13759807D02*
X12462643Y-13759807D01*
X12443595Y-13769331D01*
X12434071Y-13778855D01*
X12415024Y-13807426D01*
X12405500Y-13845521D01*
X12405500Y-13921712D01*
X12415024Y-13940759D01*
X12424548Y-13950283D01*
X12443595Y-13959807D01*
X12481690Y-13959807D01*
X12500738Y-13950283D01*
X12510262Y-13940759D01*
X12519786Y-13921712D01*
X12519786Y-13874093D01*
X12510262Y-13855045D01*
X12500738Y-13845521D01*
X12481690Y-13835998D01*
X12443595Y-13835998D01*
X12424548Y-13845521D01*
X12415024Y-13855045D01*
X12405500Y-13874093D01*
X12595976Y-13759807D02*
X12595976Y-13797902D01*
X12672167Y-13759807D02*
X12672167Y-13797902D01*
X12967405Y-14035998D02*
X12957881Y-14026474D01*
X12938833Y-13997902D01*
X12929309Y-13978855D01*
X12919786Y-13950283D01*
X12910262Y-13902664D01*
X12910262Y-13864569D01*
X12919786Y-13816950D01*
X12929309Y-13788379D01*
X12938833Y-13769331D01*
X12957881Y-13740759D01*
X12967405Y-13731236D01*
X13024548Y-13759807D02*
X13148357Y-13759807D01*
X13081690Y-13835998D01*
X13110262Y-13835998D01*
X13129309Y-13845521D01*
X13138833Y-13855045D01*
X13148357Y-13874093D01*
X13148357Y-13921712D01*
X13138833Y-13940759D01*
X13129309Y-13950283D01*
X13110262Y-13959807D01*
X13053119Y-13959807D01*
X13034071Y-13950283D01*
X13024548Y-13940759D01*
X13386452Y-13959807D02*
X13386452Y-13759807D01*
X13472167Y-13959807D02*
X13472167Y-13855045D01*
X13462643Y-13835998D01*
X13443595Y-13826474D01*
X13415024Y-13826474D01*
X13395976Y-13835998D01*
X13386452Y-13845521D01*
X13595976Y-13959807D02*
X13576928Y-13950283D01*
X13567405Y-13940759D01*
X13557881Y-13921712D01*
X13557881Y-13864569D01*
X13567405Y-13845521D01*
X13576928Y-13835998D01*
X13595976Y-13826474D01*
X13624548Y-13826474D01*
X13643595Y-13835998D01*
X13653119Y-13845521D01*
X13662643Y-13864569D01*
X13662643Y-13921712D01*
X13653119Y-13940759D01*
X13643595Y-13950283D01*
X13624548Y-13959807D01*
X13595976Y-13959807D01*
X13776928Y-13959807D02*
X13757881Y-13950283D01*
X13748357Y-13931236D01*
X13748357Y-13759807D01*
X13929309Y-13950283D02*
X13910262Y-13959807D01*
X13872167Y-13959807D01*
X13853119Y-13950283D01*
X13843595Y-13931236D01*
X13843595Y-13855045D01*
X13853119Y-13835998D01*
X13872167Y-13826474D01*
X13910262Y-13826474D01*
X13929309Y-13835998D01*
X13938833Y-13855045D01*
X13938833Y-13874093D01*
X13843595Y-13893140D01*
X14015024Y-13950283D02*
X14034071Y-13959807D01*
X14072167Y-13959807D01*
X14091214Y-13950283D01*
X14100738Y-13931236D01*
X14100738Y-13921712D01*
X14091214Y-13902664D01*
X14072167Y-13893140D01*
X14043595Y-13893140D01*
X14024548Y-13883617D01*
X14015024Y-13864569D01*
X14015024Y-13855045D01*
X14024548Y-13835998D01*
X14043595Y-13826474D01*
X14072167Y-13826474D01*
X14091214Y-13835998D01*
X14167405Y-14035998D02*
X14176928Y-14026474D01*
X14195976Y-13997902D01*
X14205500Y-13978855D01*
X14215024Y-13950283D01*
X14224548Y-13902664D01*
X14224548Y-13864569D01*
X14215024Y-13816950D01*
X14205500Y-13788379D01*
X14195976Y-13769331D01*
X14176928Y-13740759D01*
X14167405Y-13731236D01*
X9195500Y-14089331D02*
X9395500Y-14289331D01*
X9395500Y-14089331D02*
X9195500Y-14289331D01*
X9295500Y-14089331D02*
X9295500Y-14289331D01*
X9195500Y-14189331D02*
X9395500Y-14189331D01*
X9634071Y-14079807D02*
X9757881Y-14079807D01*
X9691214Y-14155998D01*
X9719786Y-14155998D01*
X9738833Y-14165521D01*
X9748357Y-14175045D01*
X9757881Y-14194093D01*
X9757881Y-14241712D01*
X9748357Y-14260759D01*
X9738833Y-14270283D01*
X9719786Y-14279807D01*
X9662643Y-14279807D01*
X9643595Y-14270283D01*
X9634071Y-14260759D01*
X9843595Y-14260759D02*
X9853119Y-14270283D01*
X9843595Y-14279807D01*
X9834071Y-14270283D01*
X9843595Y-14260759D01*
X9843595Y-14279807D01*
X9929310Y-14098855D02*
X9938833Y-14089331D01*
X9957881Y-14079807D01*
X10005500Y-14079807D01*
X10024548Y-14089331D01*
X10034071Y-14098855D01*
X10043595Y-14117902D01*
X10043595Y-14136950D01*
X10034071Y-14165521D01*
X9919786Y-14279807D01*
X10043595Y-14279807D01*
X10167405Y-14079807D02*
X10186452Y-14079807D01*
X10205500Y-14089331D01*
X10215024Y-14098855D01*
X10224548Y-14117902D01*
X10234071Y-14155998D01*
X10234071Y-14203617D01*
X10224548Y-14241712D01*
X10215024Y-14260759D01*
X10205500Y-14270283D01*
X10186452Y-14279807D01*
X10167405Y-14279807D01*
X10148357Y-14270283D01*
X10138833Y-14260759D01*
X10129310Y-14241712D01*
X10119786Y-14203617D01*
X10119786Y-14155998D01*
X10129310Y-14117902D01*
X10138833Y-14098855D01*
X10148357Y-14089331D01*
X10167405Y-14079807D01*
X10357881Y-14079807D02*
X10376929Y-14079807D01*
X10395976Y-14089331D01*
X10405500Y-14098855D01*
X10415024Y-14117902D01*
X10424548Y-14155998D01*
X10424548Y-14203617D01*
X10415024Y-14241712D01*
X10405500Y-14260759D01*
X10395976Y-14270283D01*
X10376929Y-14279807D01*
X10357881Y-14279807D01*
X10338833Y-14270283D01*
X10329310Y-14260759D01*
X10319786Y-14241712D01*
X10310262Y-14203617D01*
X10310262Y-14155998D01*
X10319786Y-14117902D01*
X10329310Y-14098855D01*
X10338833Y-14089331D01*
X10357881Y-14079807D01*
X10510262Y-14279807D02*
X10510262Y-14146474D01*
X10510262Y-14165521D02*
X10519786Y-14155998D01*
X10538833Y-14146474D01*
X10567405Y-14146474D01*
X10586452Y-14155998D01*
X10595976Y-14175045D01*
X10595976Y-14279807D01*
X10595976Y-14175045D02*
X10605500Y-14155998D01*
X10624548Y-14146474D01*
X10653119Y-14146474D01*
X10672167Y-14155998D01*
X10681690Y-14175045D01*
X10681690Y-14279807D01*
X10776929Y-14279807D02*
X10776929Y-14146474D01*
X10776929Y-14165521D02*
X10786452Y-14155998D01*
X10805500Y-14146474D01*
X10834071Y-14146474D01*
X10853119Y-14155998D01*
X10862643Y-14175045D01*
X10862643Y-14279807D01*
X10862643Y-14175045D02*
X10872167Y-14155998D01*
X10891214Y-14146474D01*
X10919786Y-14146474D01*
X10938833Y-14155998D01*
X10948357Y-14175045D01*
X10948357Y-14279807D01*
X11338833Y-14070283D02*
X11167405Y-14327426D01*
X11595976Y-14079807D02*
X11615024Y-14079807D01*
X11634071Y-14089331D01*
X11643595Y-14098855D01*
X11653119Y-14117902D01*
X11662643Y-14155998D01*
X11662643Y-14203617D01*
X11653119Y-14241712D01*
X11643595Y-14260759D01*
X11634071Y-14270283D01*
X11615024Y-14279807D01*
X11595976Y-14279807D01*
X11576928Y-14270283D01*
X11567405Y-14260759D01*
X11557881Y-14241712D01*
X11548357Y-14203617D01*
X11548357Y-14155998D01*
X11557881Y-14117902D01*
X11567405Y-14098855D01*
X11576928Y-14089331D01*
X11595976Y-14079807D01*
X11748357Y-14260759D02*
X11757881Y-14270283D01*
X11748357Y-14279807D01*
X11738833Y-14270283D01*
X11748357Y-14260759D01*
X11748357Y-14279807D01*
X11948357Y-14279807D02*
X11834071Y-14279807D01*
X11891214Y-14279807D02*
X11891214Y-14079807D01*
X11872167Y-14108379D01*
X11853119Y-14127426D01*
X11834071Y-14136950D01*
X12024548Y-14098855D02*
X12034071Y-14089331D01*
X12053119Y-14079807D01*
X12100738Y-14079807D01*
X12119786Y-14089331D01*
X12129309Y-14098855D01*
X12138833Y-14117902D01*
X12138833Y-14136950D01*
X12129309Y-14165521D01*
X12015024Y-14279807D01*
X12138833Y-14279807D01*
X12310262Y-14079807D02*
X12272167Y-14079807D01*
X12253119Y-14089331D01*
X12243595Y-14098855D01*
X12224548Y-14127426D01*
X12215024Y-14165521D01*
X12215024Y-14241712D01*
X12224548Y-14260759D01*
X12234071Y-14270283D01*
X12253119Y-14279807D01*
X12291214Y-14279807D01*
X12310262Y-14270283D01*
X12319786Y-14260759D01*
X12329309Y-14241712D01*
X12329309Y-14194093D01*
X12319786Y-14175045D01*
X12310262Y-14165521D01*
X12291214Y-14155998D01*
X12253119Y-14155998D01*
X12234071Y-14165521D01*
X12224548Y-14175045D01*
X12215024Y-14194093D01*
X12453119Y-14079807D02*
X12472167Y-14079807D01*
X12491214Y-14089331D01*
X12500738Y-14098855D01*
X12510262Y-14117902D01*
X12519786Y-14155998D01*
X12519786Y-14203617D01*
X12510262Y-14241712D01*
X12500738Y-14260759D01*
X12491214Y-14270283D01*
X12472167Y-14279807D01*
X12453119Y-14279807D01*
X12434071Y-14270283D01*
X12424548Y-14260759D01*
X12415024Y-14241712D01*
X12405500Y-14203617D01*
X12405500Y-14155998D01*
X12415024Y-14117902D01*
X12424548Y-14098855D01*
X12434071Y-14089331D01*
X12453119Y-14079807D01*
X12595976Y-14079807D02*
X12595976Y-14117902D01*
X12672167Y-14079807D02*
X12672167Y-14117902D01*
X12967405Y-14355998D02*
X12957881Y-14346474D01*
X12938833Y-14317902D01*
X12929309Y-14298855D01*
X12919786Y-14270283D01*
X12910262Y-14222664D01*
X12910262Y-14184569D01*
X12919786Y-14136950D01*
X12929309Y-14108379D01*
X12938833Y-14089331D01*
X12957881Y-14060759D01*
X12967405Y-14051236D01*
X13034071Y-14098855D02*
X13043595Y-14089331D01*
X13062643Y-14079807D01*
X13110262Y-14079807D01*
X13129309Y-14089331D01*
X13138833Y-14098855D01*
X13148357Y-14117902D01*
X13148357Y-14136950D01*
X13138833Y-14165521D01*
X13024548Y-14279807D01*
X13148357Y-14279807D01*
X13386452Y-14279807D02*
X13386452Y-14079807D01*
X13472167Y-14279807D02*
X13472167Y-14175045D01*
X13462643Y-14155998D01*
X13443595Y-14146474D01*
X13415024Y-14146474D01*
X13395976Y-14155998D01*
X13386452Y-14165521D01*
X13595976Y-14279807D02*
X13576928Y-14270283D01*
X13567405Y-14260759D01*
X13557881Y-14241712D01*
X13557881Y-14184569D01*
X13567405Y-14165521D01*
X13576928Y-14155998D01*
X13595976Y-14146474D01*
X13624548Y-14146474D01*
X13643595Y-14155998D01*
X13653119Y-14165521D01*
X13662643Y-14184569D01*
X13662643Y-14241712D01*
X13653119Y-14260759D01*
X13643595Y-14270283D01*
X13624548Y-14279807D01*
X13595976Y-14279807D01*
X13776928Y-14279807D02*
X13757881Y-14270283D01*
X13748357Y-14251236D01*
X13748357Y-14079807D01*
X13929309Y-14270283D02*
X13910262Y-14279807D01*
X13872167Y-14279807D01*
X13853119Y-14270283D01*
X13843595Y-14251236D01*
X13843595Y-14175045D01*
X13853119Y-14155998D01*
X13872167Y-14146474D01*
X13910262Y-14146474D01*
X13929309Y-14155998D01*
X13938833Y-14175045D01*
X13938833Y-14194093D01*
X13843595Y-14213140D01*
X14015024Y-14270283D02*
X14034071Y-14279807D01*
X14072167Y-14279807D01*
X14091214Y-14270283D01*
X14100738Y-14251236D01*
X14100738Y-14241712D01*
X14091214Y-14222664D01*
X14072167Y-14213140D01*
X14043595Y-14213140D01*
X14024548Y-14203617D01*
X14015024Y-14184569D01*
X14015024Y-14175045D01*
X14024548Y-14155998D01*
X14043595Y-14146474D01*
X14072167Y-14146474D01*
X14091214Y-14155998D01*
X14167405Y-14355998D02*
X14176928Y-14346474D01*
X14195976Y-14317902D01*
X14205500Y-14298855D01*
X14215024Y-14270283D01*
X14224548Y-14222664D01*
X14224548Y-14184569D01*
X14215024Y-14136950D01*
X14205500Y-14108379D01*
X14195976Y-14089331D01*
X14176928Y-14060759D01*
X14167405Y-14051236D01*
M02*
