M48
; DRILL file {KiCad (6.0.5)} date Sun Aug 20 17:12:57 2023
; FORMAT={-:-/ absolute / metric / decimal}
; #@! TF.CreationDate,2023-08-20T17:12:57+02:00
; #@! TF.GenerationSoftware,Kicad,Pcbnew,(6.0.5)
; #@! TF.FileFunction,Plated,1,2,PTH
FMAT,2
METRIC
; #@! TA.AperFunction,Plated,PTH,ViaDrill
T1C0.400
; #@! TA.AperFunction,Plated,PTH,ComponentDrill
T2C0.400
; #@! TA.AperFunction,Plated,PTH,ComponentDrill
T3C0.750
; #@! TA.AperFunction,Plated,PTH,ComponentDrill
T4C0.800
; #@! TA.AperFunction,Plated,PTH,ComponentDrill
T5C1.000
; #@! TA.AperFunction,Plated,PTH,ComponentDrill
T6C2.200
; #@! TA.AperFunction,Plated,PTH,ComponentDrill
T7C3.200
%
G90
G05
T1
X100.967Y-102.726
X105.097Y-72.03
X105.252Y-92.89
X105.934Y-89.532
X106.667Y-103.271
X106.923Y-105.291
X107.613Y-107.878
X109.253Y-69.808
X111.539Y-109.456
X111.884Y-73.412
X113.1Y-96.153
X114.542Y-87.188
X115.0Y-83.257
X115.135Y-101.228
X115.603Y-103.149
X115.885Y-76.905
X119.932Y-75.505
X119.999Y-101.889
X120.854Y-87.752
X120.974Y-93.119
X122.297Y-86.961
X122.849Y-89.057
X124.372Y-83.774
X125.231Y-84.973
X127.038Y-97.695
X128.13Y-89.032
X129.185Y-112.734
X129.726Y-85.7
X130.333Y-89.658
X130.333Y-92.704
X134.397Y-80.562
X134.499Y-85.615
X134.505Y-70.568
X134.848Y-75.464
X134.91Y-114.693
X135.076Y-95.282
X136.016Y-90.693
X136.051Y-84.077
X136.687Y-97.64
X139.151Y-83.762
X140.766Y-85.029
X142.243Y-74.686
X142.912Y-92.145
X144.173Y-96.736
X144.293Y-86.642
X145.02Y-87.468
X145.641Y-94.037
X147.062Y-100.213
X147.204Y-74.465
X149.048Y-104.371
X149.074Y-84.638
X149.505Y-93.901
X150.228Y-87.473
X151.663Y-106.186
X152.571Y-107.107
X157.931Y-73.025
X159.371Y-105.563
T2
X110.6Y-64.5
X110.85Y-116.25
X111.083Y-63.333
X111.083Y-65.667
X111.333Y-115.083
X111.333Y-117.417
X112.25Y-62.85
X112.25Y-66.15
X112.5Y-114.6
X112.5Y-117.9
X113.417Y-63.333
X113.417Y-65.667
X113.667Y-115.083
X113.667Y-117.417
X113.9Y-64.5
X114.15Y-116.25
X156.465Y-93.345
X156.948Y-92.178
X156.948Y-94.512
X158.115Y-91.695
X158.115Y-94.995
X159.282Y-92.178
X159.282Y-94.512
X159.765Y-93.345
T3
X136.652Y-77.195
X137.922Y-77.195
X139.192Y-77.195
X142.494Y-77.195
X143.764Y-77.195
X145.034Y-77.195
X148.336Y-77.195
X149.606Y-77.195
X150.876Y-77.195
T4
X117.51Y-65.84
X117.51Y-68.38
X117.51Y-70.92
X117.51Y-73.46
X117.51Y-76.0
X117.51Y-78.54
X117.51Y-81.08
X117.51Y-83.62
X117.51Y-86.16
X117.51Y-88.7
X117.51Y-91.24
X117.51Y-93.78
X117.51Y-96.32
X117.51Y-98.86
X117.51Y-101.4
X117.51Y-103.94
X117.51Y-106.48
X117.51Y-109.02
X117.51Y-111.56
X117.51Y-114.1
X127.675Y-62.865
X132.675Y-62.865
X132.75Y-65.84
X132.75Y-68.38
X132.75Y-70.92
X132.75Y-73.46
X132.75Y-76.0
X132.75Y-78.54
X132.75Y-81.08
X132.75Y-83.62
X132.75Y-86.16
X132.75Y-88.7
X132.75Y-91.24
X132.75Y-93.78
X132.75Y-96.32
X132.75Y-98.86
X132.75Y-101.4
X132.75Y-103.94
X132.75Y-106.48
X132.75Y-109.02
X132.75Y-111.56
X132.75Y-114.1
X137.932Y-81.28
X137.932Y-88.9
X138.176Y-64.516
X138.176Y-72.136
X140.472Y-81.28
X140.472Y-88.9
X143.012Y-81.28
X143.012Y-88.9
X143.764Y-64.516
X143.764Y-72.136
X145.552Y-81.28
X145.552Y-88.9
X148.092Y-81.28
X148.092Y-88.9
X149.606Y-64.516
X149.606Y-72.136
X150.632Y-81.28
X150.632Y-88.9
X153.172Y-81.28
X153.172Y-88.9
X155.712Y-81.28
X155.712Y-88.9
X158.75Y-83.86
X158.75Y-88.86
T5
X98.76Y-75.045
X98.76Y-77.815
X98.76Y-80.585
X98.76Y-83.355
X98.76Y-86.125
X98.76Y-88.895
X98.76Y-91.665
X98.76Y-94.435
X98.76Y-97.205
X98.76Y-99.975
X98.76Y-102.745
X98.76Y-105.515
X101.6Y-73.66
X101.6Y-76.43
X101.6Y-79.2
X101.6Y-81.97
X101.6Y-84.74
X101.6Y-87.51
X101.6Y-90.28
X101.6Y-93.05
X101.6Y-95.82
X101.6Y-98.59
X101.6Y-101.36
X101.6Y-104.13
X101.6Y-106.9
X107.89Y-73.66
X107.89Y-76.2
X107.89Y-78.74
X107.89Y-81.28
X107.89Y-83.82
X107.89Y-86.36
X107.89Y-88.9
X107.89Y-91.44
X107.89Y-93.98
X107.89Y-96.52
X107.89Y-99.06
X107.89Y-101.6
X107.89Y-104.14
X110.43Y-73.66
X110.43Y-76.2
X110.43Y-78.74
X110.43Y-81.28
X110.43Y-83.82
X110.43Y-86.36
X110.43Y-88.9
X110.43Y-91.44
X110.43Y-93.98
X110.43Y-96.52
X110.43Y-99.06
X110.43Y-101.6
X110.43Y-104.14
X111.12Y-111.76
X113.66Y-111.76
X138.797Y-100.888
X138.797Y-103.428
X138.797Y-105.968
X138.797Y-108.508
X138.797Y-111.048
X138.797Y-113.588
X138.797Y-116.128
X154.047Y-100.888
X154.047Y-103.428
X154.047Y-105.968
X154.047Y-108.508
X154.047Y-111.048
X154.047Y-113.588
X154.047Y-116.128
X155.702Y-65.405
X155.702Y-67.945
X155.702Y-70.485
X155.702Y-73.025
X155.702Y-77.47
X158.242Y-77.47
T6
X112.25Y-64.5
X112.5Y-116.25
X158.115Y-93.345
T7
X101.3Y-66.73
X101.3Y-113.83
T0
M30
